<?xml version="1.0" encoding="UTF-8" standalone="no"?>
<svg
   xmlns:dc="http://purl.org/dc/elements/1.1/"
   xmlns:cc="http://creativecommons.org/ns#"
   xmlns:rdf="http://www.w3.org/1999/02/22-rdf-syntax-ns#"
   xmlns:svg="http://www.w3.org/2000/svg"
   xmlns="http://www.w3.org/2000/svg"
   xmlns:sodipodi="http://sodipodi.sourceforge.net/DTD/sodipodi-0.dtd"
   xmlns:inkscape="http://www.inkscape.org/namespaces/inkscape"
   id="Capa_1"
   data-name="Capa 1"
   viewBox="0 0 64 59.999999"
   version="1.1"
   sodipodi:docname="buscar-profesional-1.svg"
   inkscape:version="0.92.4 (5da689c313, 2019-01-14)"
   width="64"
   height="60">
  <metadata
     id="metadata3831">
    <rdf:RDF>
      <cc:Work
         rdf:about="">
        <dc:format>image/svg+xml</dc:format>
        <dc:type
           rdf:resource="http://purl.org/dc/dcmitype/StillImage" />
        <dc:title>INTERFACE</dc:title>
      </cc:Work>
    </rdf:RDF>
  </metadata>
  <sodipodi:namedview
     pagecolor="#ffffff"
     bordercolor="#666666"
     borderopacity="1"
     objecttolerance="10"
     gridtolerance="10"
     guidetolerance="10"
     inkscape:pageopacity="0"
     inkscape:pageshadow="2"
     inkscape:window-width="1366"
     inkscape:window-height="705"
     id="namedview3829"
     showgrid="false"
     inkscape:zoom="8.0733333"
     inkscape:cx="75"
     inkscape:cy="28.85"
     inkscape:window-x="-8"
     inkscape:window-y="-8"
     inkscape:window-maximized="1"
     inkscape:current-layer="Capa_1" />
  <defs
     id="defs3775">
    <style
       id="style3773">.cls-1{fill:#a09d4f;}.cls-2{fill:#ba5e43;}.cls-3{fill:#e1c347;}.cls-4{fill:#5d9a9a;}.cls-5{fill:#ddd8bf;}.cls-6{fill:#43382f;}.cls-7{font-size:12px;fill:#211915;font-family:MyriadPro-Regular, Myriad Pro;}.cls-8{letter-spacing:0em;}.cls-9{letter-spacing:0em;}.cls-10{letter-spacing:0em;}.cls-11{letter-spacing:0em;}</style>
  </defs>
  <title
     id="title3777">INTERFACE</title>
  <g
     id="_Grupo_"
     data-name="&lt;Grupo&gt;"
     transform="translate(0,2.2999977)">
    <g
       id="_Grupo_2"
       data-name="&lt;Grupo&gt;">
      <circle
         id="_Trazado_"
         data-name="&lt;Trazado&gt;"
         class="cls-1"
         cx="30.43"
         cy="27.4"
         r="22.4"
         transform="rotate(-90,30.315,27.415)"
         style="fill:#a09d4f" />
    </g>
    <g
       id="_Grupo_3"
       data-name="&lt;Grupo&gt;">
      <path
         id="_Trazado_2"
         data-name="&lt;Trazado&gt;"
         class="cls-2"
         d="m 49.35,31.44 -7,2.75 c -6.12,4.21 -15.23,3.5 -16,1.47 L 25.1,32.24 a 3.94,3.94 0 0 1 2.34,-5 l 17.89,-6.56 a 3.94,3.94 0 0 1 5,2.34 l 1.25,3.42 a 3.94,3.94 0 0 1 -2.23,5 z"
         inkscape:connector-curvature="0"
         style="fill:#ba5e43" />
    </g>
    <g
       id="_Grupo_4"
       data-name="&lt;Grupo&gt;">
      <g
         id="_Grupo_5"
         data-name="&lt;Grupo&gt;">
        <g
           id="_Grupo_6"
           data-name="&lt;Grupo&gt;">
          <path
             id="_Trazado_3"
             data-name="&lt;Trazado&gt;"
             class="cls-3"
             d="m 51.69,25.6 -1.25,-3.42 a 3.94,3.94 0 0 0 -5,-2.34 L 37,22.93 34.14,20.18 a 1.29,1.29 0 0 0 -1.81,0 l -1.25,1.3 a 1.29,1.29 0 0 0 0,1.81 l 1.33,1.28 -4.93,1.81 a 3.94,3.94 0 0 0 -2.34,5 l 1.25,3.42 c 0.74,2 10.24,2.76 17.12,-2.09 l 5.81,-2.13 a 3.94,3.94 0 0 0 2.37,-4.98 z"
             inkscape:connector-curvature="0"
             style="fill:#e1c347" />
        </g>
        <g
           id="_Grupo_7"
           data-name="&lt;Grupo&gt;">
          <rect
             id="_Rectángulo_"
             data-name="&lt;Rectángulo&gt;"
             class="cls-4"
             x="23.67"
             y="23.459999"
             width="13.86"
             height="3.98"
             rx="1.99"
             ry="1.99"
             style="fill:#5d9a9a" />
        </g>
        <g
           id="_Grupo_8"
           data-name="&lt;Grupo&gt;">
          <rect
             id="_Rectángulo_2"
             data-name="&lt;Rectángulo&gt;"
             class="cls-4"
             x="24.42"
             y="27.120001"
             width="12.47"
             height="3.51"
             rx="1.75"
             ry="1.75"
             style="fill:#5d9a9a" />
        </g>
        <g
           id="_Grupo_9"
           data-name="&lt;Grupo&gt;">
          <rect
             id="_Rectángulo_3"
             data-name="&lt;Rectángulo&gt;"
             class="cls-4"
             x="24.549999"
             y="30.35"
             width="11.96"
             height="4.02"
             rx="2.01"
             ry="2.01"
             style="fill:#5d9a9a" />
        </g>
        <g
           id="_Grupo_10"
           data-name="&lt;Grupo&gt;">
          <path
             id="_Trazado_4"
             data-name="&lt;Trazado&gt;"
             class="cls-5"
             d="m 36,23.42 h -6.74 a 1.46,1.46 0 0 0 -0.15,-1.66 l -0.58,-0.69 a 1.45,1.45 0 0 0 -2,-0.17 l -3.34,2.82 A 1.44,1.44 0 0 0 22.94,24 l -7.13,0.15 A 3.79,3.79 0 0 0 12.07,28 l 0.08,4 A 3.79,3.79 0 0 0 16,35.65 l 12.62,-0.27 a 3.76,3.76 0 0 0 2.52,-1 H 35 a 1.16,1.16 0 0 0 1.15,-1.15 v -1.76 a 1.15,1.15 0 0 0 -0.46,-0.92 1.16,1.16 0 0 0 0.83,-1.11 v -1.2 a 1.15,1.15 0 0 0 -0.37,-0.84 1.16,1.16 0 0 0 1,-1.14 V 24.58 A 1.16,1.16 0 0 0 36,23.42 Z"
             inkscape:connector-curvature="0"
             style="fill:#ddd8bf" />
        </g>
        <g
           id="_Grupo_11"
           data-name="&lt;Grupo&gt;">
          <rect
             id="_Rectángulo_4"
             data-name="&lt;Rectángulo&gt;"
             class="cls-2"
             x="22.24"
             y="33.09"
             width="6.5500002"
             height="3.51"
             rx="1.75"
             ry="1.75"
             transform="matrix(-0.03,1,-1,-0.03,61.19,10.51)"
             style="fill:#ba5e43" />
        </g>
        <g
           id="_Grupo_12"
           data-name="&lt;Grupo&gt;">
          <rect
             id="_Rectángulo_5"
             data-name="&lt;Rectángulo&gt;"
             class="cls-2"
             x="25.43"
             y="33.32"
             width="6.96"
             height="3.51"
             rx="1.75"
             ry="1.75"
             transform="rotate(91.92,28.906297,35.074917)"
             style="fill:#ba5e43" />
        </g>
        <g
           id="_Grupo_13"
           data-name="&lt;Grupo&gt;">
          <rect
             id="_Rectángulo_6"
             data-name="&lt;Rectángulo&gt;"
             class="cls-2"
             x="28.860001"
             y="32.529999"
             width="6.9699998"
             height="3.6700001"
             rx="1.84"
             ry="1.84"
             transform="matrix(-0.03,1,-1,-0.03,67.78,3.19)"
             style="fill:#ba5e43" />
        </g>
        <g
           id="_Grupo_14"
           data-name="&lt;Grupo&gt;">
          <path
             id="_Trazado_5"
             data-name="&lt;Trazado&gt;"
             class="cls-3"
             d="m 33.29,31.46 -1.55,-0.05 a 1.16,1.16 0 0 0 -1.19,1.11 v 0.22 a 1.15,1.15 0 0 0 -1,-0.57 h -1.2 a 1.16,1.16 0 0 0 -1.14,0.82 1.16,1.16 0 0 0 -1.06,-0.8 h -1.2 a 1.16,1.16 0 0 0 -1.19,1.11 l -0.14,4.24 a 1.16,1.16 0 0 0 1.11,1.19 h 1.2 A 1.16,1.16 0 0 0 27,38 a 1.16,1.16 0 0 0 1.11,1.05 h 1.2 A 1.16,1.16 0 0 0 30.54,38 v -0.21 a 1.15,1.15 0 0 0 1,0.57 l 1.55,0.05 a 1.16,1.16 0 0 0 1.19,-1.11 l 0.16,-4.67 a 1.16,1.16 0 0 0 -1.15,-1.17 z"
             inkscape:connector-curvature="0"
             style="fill:#e1c347" />
        </g>
        <g
           id="_Grupo_15"
           data-name="&lt;Grupo&gt;">
          <rect
             id="_Rectángulo_7"
             data-name="&lt;Rectángulo&gt;"
             class="cls-4"
             x="8.5100002"
             y="23.879999"
             width="13.14"
             height="10.47"
             transform="rotate(-83.38,15.080822,29.116377)"
             style="fill:#5d9a9a" />
        </g>
        <g
           id="_Grupo_16"
           data-name="&lt;Grupo&gt;">
          <rect
             id="_Rectángulo_8"
             data-name="&lt;Rectángulo&gt;"
             class="cls-6"
             x="5.4000001"
             y="22.42"
             width="14.46"
             height="12.58"
             transform="rotate(-83.38,12.628944,28.704415)"
             style="fill:#43382f" />
        </g>
        <g
           id="_Grupo_17"
           data-name="&lt;Grupo&gt;">
          <rect
             id="_Rectángulo_9"
             data-name="&lt;Rectángulo&gt;"
             class="cls-4"
             x="38.349998"
             y="20.860001"
             width="13.89"
             height="11.07"
             transform="rotate(-110.51,45.294498,26.397691)"
             style="fill:#5d9a9a" />
        </g>
        <g
           id="_Grupo_18"
           data-name="&lt;Grupo&gt;">
          <rect
             id="_Rectángulo_10"
             data-name="&lt;Rectángulo&gt;"
             class="cls-6"
             x="40.380001"
             y="18.25"
             width="15.28"
             height="13.98"
             transform="rotate(-110.51,48.027827,25.234998)"
             style="fill:#43382f" />
        </g>
      </g>
      <g
         id="_Grupo_19"
         data-name="&lt;Grupo&gt;">
        <path
           id="_Trazado_6"
           data-name="&lt;Trazado&gt;"
           class="cls-5"
           d="m 41.09,16.73 a 1.32,1.32 0 0 1 -0.86,-0.44 2.82,2.82 0 0 1 -0.57,-1 c -0.08,-0.22 -0.15,-0.44 -0.21,-0.67 a 0.09,0.09 0 0 0 -0.18,0 6.52,6.52 0 0 1 -0.38,0.93 2.23,2.23 0 0 1 -0.46,0.68 v 0 a 1.21,1.21 0 0 1 -0.74,0.21 c -0.1,0 -0.13,0.18 0,0.2 a 2.11,2.11 0 0 1 1.54,1.5 2.16,2.16 0 0 1 0.09,0.66 0.095,0.095 0 0 0 0.19,0 2.92,2.92 0 0 1 1.14,-1.78 1,1 0 0 1 0.51,-0.13 c 0.05,0.05 0.05,-0.15 -0.07,-0.16 z"
           inkscape:connector-curvature="0"
           style="fill:#ddd8bf" />
      </g>
      <g
         id="_Grupo_20"
         data-name="&lt;Grupo&gt;">
        <path
           id="_Trazado_7"
           data-name="&lt;Trazado&gt;"
           class="cls-5"
           d="m 23.7,40.76 a 1.32,1.32 0 0 1 -0.86,-0.44 2.82,2.82 0 0 1 -0.57,-1 C 22.19,39.1 22.12,38.88 22.06,38.65 a 0.09,0.09 0 0 0 -0.18,0 6.51,6.51 0 0 1 -0.38,0.93 2.23,2.23 0 0 1 -0.46,0.68 v 0 a 1.21,1.21 0 0 1 -0.74,0.21 c -0.1,0 -0.13,0.18 0,0.2 a 2.11,2.11 0 0 1 1.54,1.5 2.16,2.16 0 0 1 0.09,0.66 0.095,0.095 0 0 0 0.19,0 2.92,2.92 0 0 1 1.14,-1.78 A 1,1 0 0 1 23.7,41 c 0.12,0 0.12,-0.23 0,-0.24 z"
           inkscape:connector-curvature="0"
           style="fill:#ddd8bf" />
      </g>
    </g>
  </g>
</svg>
