<?xml version="1.0" encoding="UTF-8" standalone="no"?>
<svg
   xmlns:dc="http://purl.org/dc/elements/1.1/"
   xmlns:cc="http://creativecommons.org/ns#"
   xmlns:rdf="http://www.w3.org/1999/02/22-rdf-syntax-ns#"
   xmlns:svg="http://www.w3.org/2000/svg"
   xmlns="http://www.w3.org/2000/svg"
   xmlns:sodipodi="http://sodipodi.sourceforge.net/DTD/sodipodi-0.dtd"
   xmlns:inkscape="http://www.inkscape.org/namespaces/inkscape"
   id="Capa_1"
   data-name="Capa 1"
   viewBox="0 0 64 59.999998"
   version="1.1"
   sodipodi:docname="capacitate.svg"
   width="64"
   height="60"
   inkscape:version="0.92.4 (5da689c313, 2019-01-14)">
  <metadata
     id="metadata4998">
    <rdf:RDF>
      <cc:Work
         rdf:about="">
        <dc:format>image/svg+xml</dc:format>
        <dc:type
           rdf:resource="http://purl.org/dc/dcmitype/StillImage" />
        <dc:title>CAPACITATE</dc:title>
      </cc:Work>
    </rdf:RDF>
  </metadata>
  <sodipodi:namedview
     pagecolor="#ffffff"
     bordercolor="#666666"
     borderopacity="1"
     objecttolerance="10"
     gridtolerance="10"
     guidetolerance="10"
     inkscape:pageopacity="0"
     inkscape:pageshadow="2"
     inkscape:window-width="1366"
     inkscape:window-height="705"
     id="namedview4996"
     showgrid="false"
     inkscape:zoom="2.3266667"
     inkscape:cx="75"
     inkscape:cy="32.665001"
     inkscape:window-x="-8"
     inkscape:window-y="-8"
     inkscape:window-maximized="1"
     inkscape:current-layer="Capa_1" />
  <defs
     id="defs4923">
    <style
       id="style4921">.cls-1{fill:#a09d4f;}.cls-2{fill:#ddd8bf;}.cls-3{fill:#ba5e43;}.cls-4{fill:#43382f;}.cls-5{fill:#11766f;}.cls-6{fill:#ae593c;}.cls-7{font-size:12px;fill:#211915;font-family:MyriadPro-Regular, Myriad Pro;}.cls-8{letter-spacing:0em;}.cls-9{letter-spacing:-0.08em;}.cls-10{letter-spacing:-0.01em;}.cls-11{letter-spacing:-0.07em;}.cls-12{letter-spacing:-0.08em;}</style>
  </defs>
  <title
     id="title4925">CAPACITATE</title>
  <g
     id="_Grupo_"
     data-name="&lt;Grupo&gt;"
     transform="translate(4,-3.3300018)">
    <g
       id="_Grupo_2"
       data-name="&lt;Grupo&gt;">
      <circle
         id="_Trazado_"
         data-name="&lt;Trazado&gt;"
         class="cls-1"
         cx="28.85"
         cy="31.709999"
         r="24.219999"
         transform="rotate(-89.76,28.85183,31.711254)"
         style="fill:#a09d4f" />
    </g>
    <g
       id="_Grupo_3"
       data-name="&lt;Grupo&gt;">
      <g
         id="_Grupo_4"
         data-name="&lt;Grupo&gt;">
        <g
           id="_Grupo_5"
           data-name="&lt;Grupo&gt;">
          <rect
             id="_Rectángulo_"
             data-name="&lt;Rectángulo&gt;"
             class="cls-2"
             x="5.0500002"
             y="18.35"
             width="37.93"
             height="23.5"
             rx="2.95"
             ry="2.95"
             style="fill:#ddd8bf" />
        </g>
        <g
           id="_Grupo_6"
           data-name="&lt;Grupo&gt;">
          <path
             id="_Trazado_compuesto_"
             data-name="&lt;Trazado compuesto&gt;"
             class="cls-3"
             d="M 42.34,42.66 H 5.69 A 1.45,1.45 0 0 1 4.25,41.21 V 19 A 1.45,1.45 0 0 1 5.69,17.55 H 42.34 A 1.45,1.45 0 0 1 43.78,19 v 22.21 a 1.45,1.45 0 0 1 -1.44,1.45 z M 5.85,41 H 42.18 V 19.16 H 5.85 Z"
             inkscape:connector-curvature="0"
             style="fill:#ba5e43" />
        </g>
      </g>
      <g
         id="_Grupo_7"
         data-name="&lt;Grupo&gt;">
        <path
           id="_Trazado_2"
           data-name="&lt;Trazado&gt;"
           class="cls-4"
           d="M 38.37,24.35 H 26.52 c -0.38,0 -0.38,0.68 0,0.68 h 11.85 c 0.38,-0.03 0.38,-0.68 0,-0.68 z"
           inkscape:connector-curvature="0"
           style="fill:#43382f" />
      </g>
      <g
         id="_Grupo_8"
         data-name="&lt;Grupo&gt;">
        <path
           id="_Trazado_3"
           data-name="&lt;Trazado&gt;"
           class="cls-4"
           d="M 38.37,27.5 H 26.52 c -0.38,0 -0.38,0.68 0,0.68 h 11.85 c 0.38,-0.01 0.38,-0.68 0,-0.68 z"
           inkscape:connector-curvature="0"
           style="fill:#43382f" />
      </g>
      <g
         id="_Grupo_9"
         data-name="&lt;Grupo&gt;">
        <path
           id="_Trazado_4"
           data-name="&lt;Trazado&gt;"
           class="cls-4"
           d="M 38.37,30.24 H 26.52 c -0.38,0 -0.38,0.68 0,0.68 h 11.85 c 0.38,-0.01 0.38,-0.68 0,-0.68 z"
           inkscape:connector-curvature="0"
           style="fill:#43382f" />
      </g>
      <g
         id="_Grupo_10"
         data-name="&lt;Grupo&gt;">
        <path
           id="_Trazado_5"
           data-name="&lt;Trazado&gt;"
           class="cls-4"
           d="M 38.37,32.56 H 26.52 c -0.38,0 -0.38,0.68 0,0.68 h 11.85 c 0.38,0 0.38,-0.68 0,-0.68 z"
           inkscape:connector-curvature="0"
           style="fill:#43382f" />
      </g>
      <g
         id="_Grupo_11"
         data-name="&lt;Grupo&gt;">
        <path
           id="_Trazado_6"
           data-name="&lt;Trazado&gt;"
           class="cls-4"
           d="M 38.37,34.28 H 26.52 c -0.38,0 -0.38,0.68 0,0.68 h 11.85 c 0.38,0.04 0.38,-0.68 0,-0.68 z"
           inkscape:connector-curvature="0"
           style="fill:#43382f" />
      </g>
      <g
         id="_Grupo_12"
         data-name="&lt;Grupo&gt;">
        <circle
           id="_Trazado_7"
           data-name="&lt;Trazado&gt;"
           class="cls-4"
           cx="38.09"
           cy="28.299999"
           r="7.8200002"
           style="fill:#43382f" />
      </g>
      <g
         id="_Grupo_13"
         data-name="&lt;Grupo&gt;">
        <circle
           id="_Trazado_8"
           data-name="&lt;Trazado&gt;"
           class="cls-5"
           cx="37.330002"
           cy="28.200001"
           r="7.8200002"
           style="fill:#11766f" />
      </g>
      <g
         id="_Grupo_14"
         data-name="&lt;Grupo&gt;">
        <path
           id="_Trazado_9"
           data-name="&lt;Trazado&gt;"
           class="cls-4"
           d="m 47.22,53.72 c 0,-1.16 0,-2.68 -0.15,-4.59 -0.35,-5.2 -6,-11.81 -6,-11.81 h -4.85 c 0,0 -5.62,6.61 -6,11.81 -0.13,1.92 -0.16,3.44 -0.15,4.59 v 3.55 a 0.8,0.8 0 0 0 0.75,0.84 h 15.65 a 0.8,0.8 0 0 0 0.75,-0.84 z"
           inkscape:connector-curvature="0"
           style="fill:#43382f" />
      </g>
      <g
         id="_Grupo_15"
         data-name="&lt;Grupo&gt;">
        <path
           id="_Trazado_10"
           data-name="&lt;Trazado&gt;"
           class="cls-5"
           d="m 46.54,53.72 c 0,-1.16 0,-2.68 -0.15,-4.59 -0.35,-5.2 -6,-11.81 -6,-11.81 h -4.85 c 0,0 -5.62,6.61 -6,11.81 -0.13,1.92 -0.16,3.44 -0.15,4.59 v 3.55 a 0.8,0.8 0 0 0 0.75,0.84 h 15.65 a 0.8,0.8 0 0 0 0.75,-0.84 z"
           inkscape:connector-curvature="0"
           style="fill:#11766f" />
      </g>
      <g
         id="_Grupo_16"
         data-name="&lt;Grupo&gt;">
        <path
           id="_Trazado_compuesto_2"
           data-name="&lt;Trazado compuesto&gt;"
           class="cls-4"
           d="m 17.63,37.37 a 7.91,7.91 0 1 1 0.09,0 z m 0,-14.93 h -0.08 a 7.0001143,7.0001143 0 0 0 0.08,14 h 0.08 a 7.0001143,7.0001143 0 0 0 -0.08,-14 z"
           inkscape:connector-curvature="0"
           style="fill:#43382f" />
      </g>
      <g
         id="_Grupo_17"
         data-name="&lt;Grupo&gt;">
        <rect
           id="_Rectángulo_2"
           data-name="&lt;Rectángulo&gt;"
           class="cls-4"
           x="17.360001"
           y="22"
           width="0.27000001"
           height="14.73"
           transform="rotate(-0.64,17.744745,28.747592)"
           style="fill:#43382f" />
      </g>
      <g
         id="_Grupo_18"
         data-name="&lt;Grupo&gt;">
        <rect
           id="_Rectángulo_3"
           data-name="&lt;Rectángulo&gt;"
           class="cls-4"
           x="20.639999"
           y="23.940001"
           width="0.27000001"
           height="7.79"
           transform="rotate(59.09,20.774337,27.829769)"
           style="fill:#43382f" />
      </g>
      <g
         id="_Grupo_19"
         data-name="&lt;Grupo&gt;">
        <rect
           id="_Rectángulo_4"
           data-name="&lt;Rectángulo&gt;"
           class="cls-4"
           x="18.15"
           y="27.5"
           width="0.2"
           height="1.74"
           transform="rotate(124.66,18.253548,28.370079)"
           style="fill:#43382f" />
      </g>
      <g
         id="_Grupo_20"
         data-name="&lt;Grupo&gt;">
        <rect
           id="_Rectángulo_5"
           data-name="&lt;Rectángulo&gt;"
           class="cls-4"
           x="18.73"
           y="25.780001"
           width="0.2"
           height="3.1800001"
           transform="rotate(124.67,18.834906,27.370778)"
           style="fill:#43382f" />
      </g>
      <g
         id="_Grupo_21"
         data-name="&lt;Grupo&gt;">
        <rect
           id="_Rectángulo_6"
           data-name="&lt;Rectángulo&gt;"
           class="cls-4"
           x="19.280001"
           y="24.040001"
           width="0.2"
           height="4.5500002"
           transform="rotate(124.66,19.376562,26.313431)"
           style="fill:#43382f" />
      </g>
      <g
         id="_Grupo_22"
         data-name="&lt;Grupo&gt;">
        <rect
           id="_Rectángulo_7"
           data-name="&lt;Rectángulo&gt;"
           class="cls-4"
           x="19.82"
           y="22.24"
           width="0.2"
           height="6.0100002"
           transform="rotate(124.66,19.922366,25.248187)"
           style="fill:#43382f" />
      </g>
      <g
         id="_Grupo_23"
         data-name="&lt;Grupo&gt;">
        <rect
           id="_Rectángulo_8"
           data-name="&lt;Rectángulo&gt;"
           class="cls-4"
           x="20.389999"
           y="20.610001"
           width="0.2"
           height="7.1900001"
           transform="rotate(124.66,20.487927,24.206053)"
           style="fill:#43382f" />
      </g>
      <g
         id="_Grupo_24"
         data-name="&lt;Grupo&gt;">
        <g
           id="_Grupo_25"
           data-name="&lt;Grupo&gt;">
          <rect
             id="_Rectángulo_9"
             data-name="&lt;Rectángulo&gt;"
             class="cls-6"
             x="22.66"
             y="28.41"
             width="0.5"
             height="17.690001"
             transform="rotate(130.02,22.905142,37.248429)"
             style="fill:#ae593c" />
        </g>
        <g
           id="_Grupo_26"
           data-name="&lt;Grupo&gt;">
          <path
             id="_Trazado_compuesto_3"
             data-name="&lt;Trazado compuesto&gt;"
             class="cls-6"
             d="M 29.53,43.28 15.82,31.77 16.28,31.23 16.36,31.3 30,42.74 Z M 16.13,31.74 29.51,43 29.69,42.79 16.31,31.53 Z"
             inkscape:connector-curvature="0"
             style="fill:#ae593c" />
        </g>
      </g>
      <g
         id="_Grupo_27"
         data-name="&lt;Grupo&gt;">
        <rect
           id="_Rectángulo_10"
           data-name="&lt;Rectángulo&gt;"
           class="cls-5"
           x="27.5"
           y="36.919998"
           width="4.5300002"
           height="13.78"
           rx="2.0599999"
           ry="2.0599999"
           transform="rotate(-49.98,29.776212,43.807252)"
           style="fill:#11766f" />
      </g>
    </g>
  </g>
</svg>
