<?xml version="1.0" encoding="UTF-8" standalone="no"?>
<svg
   xmlns:dc="http://purl.org/dc/elements/1.1/"
   xmlns:cc="http://creativecommons.org/ns#"
   xmlns:rdf="http://www.w3.org/1999/02/22-rdf-syntax-ns#"
   xmlns:svg="http://www.w3.org/2000/svg"
   xmlns="http://www.w3.org/2000/svg"
   xmlns:sodipodi="http://sodipodi.sourceforge.net/DTD/sodipodi-0.dtd"
   xmlns:inkscape="http://www.inkscape.org/namespaces/inkscape"
   id="Capa_1"
   data-name="Capa 1"
   viewBox="0 0 64 60"
   version="1.1"
   sodipodi:docname="configuracion.svg"
   width="64"
   height="60"
   inkscape:version="0.92.4 (5da689c313, 2019-01-14)">
  <metadata
     id="metadata4468">
    <rdf:RDF>
      <cc:Work
         rdf:about="">
        <dc:format>image/svg+xml</dc:format>
        <dc:type
           rdf:resource="http://purl.org/dc/dcmitype/StillImage" />
        <dc:title>CONFIG</dc:title>
      </cc:Work>
    </rdf:RDF>
  </metadata>
  <sodipodi:namedview
     pagecolor="#ffffff"
     bordercolor="#666666"
     borderopacity="1"
     objecttolerance="10"
     gridtolerance="10"
     guidetolerance="10"
     inkscape:pageopacity="0"
     inkscape:pageshadow="2"
     inkscape:window-width="1366"
     inkscape:window-height="705"
     id="namedview4466"
     showgrid="false"
     inkscape:zoom="2.3266667"
     inkscape:cx="75"
     inkscape:cy="29"
     inkscape:window-x="-8"
     inkscape:window-y="-8"
     inkscape:window-maximized="1"
     inkscape:current-layer="Capa_1" />
  <defs
     id="defs4431">
    <style
       id="style4429">.cls-1{fill:#5d9a9a;}.cls-2{fill:#e1c347;}.cls-3{fill:#ba5e43;}.cls-4{fill:#ddd8bf;}.cls-5{fill:#a6cbc2;}.cls-6{fill:#2b4348;}.cls-7{font-size:12px;fill:#211915;font-family:MyriadPro-Regular, Myriad Pro;letter-spacing:-0.02em;}.cls-8{letter-spacing:0em;}</style>
  </defs>
  <title
     id="title4433">CONFIG</title>
  <g
     id="_Grupo_"
     data-name="&lt;Grupo&gt;"
     transform="translate(2)">
    <g
       id="_Grupo_2"
       data-name="&lt;Grupo&gt;">
      <circle
         id="_Trazado_"
         data-name="&lt;Trazado&gt;"
         class="cls-1"
         cx="28.85"
         cy="30.379999"
         r="21.440001"
         transform="rotate(-89.76,28.854039,30.373442)"
         style="fill:#5d9a9a" />
    </g>
    <g
       id="_Grupo_3"
       data-name="&lt;Grupo&gt;">
      <g
         id="_Grupo_4"
         data-name="&lt;Grupo&gt;">
        <g
           id="_Grupo_5"
           data-name="&lt;Grupo&gt;">
          <g
             id="_Grupo_6"
             data-name="&lt;Grupo&gt;">
            <g
               id="_Grupo_7"
               data-name="&lt;Grupo&gt;">
              <path
                 id="_Trazado_compuesto_"
                 data-name="&lt;Trazado compuesto&gt;"
                 class="cls-2"
                 d="m 37.82,31.73 v 0 a 1.07,1.07 0 0 1 -0.26,-2 v 0 a 1.07,1.07 0 0 0 -0.65,-2 v 0 a 1.07,1.07 0 0 1 -1,-1.75 v 0 a 1.07,1.07 0 0 0 -1.33,-1.62 v 0 A 1.07,1.07 0 0 1 33,23.07 v 0 a 1.07,1.07 0 0 0 -1.83,-1 v 0 a 1.07,1.07 0 0 1 -1.89,-0.65 v 0 a 1.07,1.07 0 0 0 -2.08,-0.3 v 0 a 1.07,1.07 0 0 1 -2,0.08 v 0 a 1.07,1.07 0 0 0 -2,0.47 v 0 a 1.07,1.07 0 0 1 -1.83,0.79 v 0 a 1.07,1.07 0 0 0 -1.74,1.18 v 0 A 1.07,1.07 0 0 1 18.16,25 v 0 a 1.07,1.07 0 0 0 -1.2,1.72 v 0 a 1.07,1.07 0 0 1 -0.82,1.82 v 0 a 1.07,1.07 0 0 0 -0.49,2 v 0 a 1.07,1.07 0 0 1 -0.1,2 v 0 a 1.07,1.07 0 0 0 0.28,2.08 v 0 a 1.07,1.07 0 0 1 0.62,1.89 v 0 a 1,1 0 0 0 -0.4,0.74 3.81,3.81 0 0 1 0.86,-0.1 4.14,4.14 0 0 1 4.07,3.84 1.07,1.07 0 0 1 1.14,1.23 v 0 a 1.07,1.07 0 0 0 2,0.68 v 0 a 1.07,1.07 0 0 1 2,0.29 v 0 a 1.07,1.07 0 0 0 2.1,-0.08 v 0 a 1.07,1.07 0 0 1 1.94,-0.44 v 0 A 1.07,1.07 0 0 0 32.05,42 v 0 a 1.07,1.07 0 0 1 1.65,-1.12 v 0 a 1.07,1.07 0 0 0 1.49,-1.48 v 0 a 1.07,1.07 0 0 1 1.14,-1.64 v 0 a 1.07,1.07 0 0 0 0.86,-1.92 v 0 a 1.07,1.07 0 0 1 0.47,-1.94 v 0 a 1.0879453,1.0879453 0 0 0 0.16,-2.17 z M 26.7,40.07 a 7.83,7.83 0 1 1 7.83,-7.83 7.83,7.83 0 0 1 -7.83,7.83 z"
                 inkscape:connector-curvature="0"
                 style="fill:#e1c347" />
            </g>
          </g>
        </g>
        <g
           id="_Grupo_8"
           data-name="&lt;Grupo&gt;">
          <g
             id="_Grupo_9"
             data-name="&lt;Grupo&gt;">
            <g
               id="_Grupo_10"
               data-name="&lt;Grupo&gt;">
              <path
                 id="_Trazado_compuesto_2"
                 data-name="&lt;Trazado compuesto&gt;"
                 class="cls-3"
                 d="m 37.27,31.72 v 0 a 1.08,1.08 0 0 1 -0.27,-2 v 0 a 1.08,1.08 0 0 0 -0.66,-2 v 0 a 1.08,1.08 0 0 1 -1,-1.77 v 0 A 1.0901835,1.0901835 0 0 0 34,24.23 v 0 A 1.08,1.08 0 0 1 32.43,23 v 0 a 1.08,1.08 0 0 0 -1.85,-1 v 0 a 1.08,1.08 0 0 1 -1.91,-0.65 v 0 a 1.08,1.08 0 0 0 -2.1,-0.31 v 0 a 1.08,1.08 0 0 1 -2,0.08 v 0 a 1.08,1.08 0 0 0 -2.07,0.47 v 0 a 1.08,1.08 0 0 1 -1.85,0.8 v 0 a 1.08,1.08 0 0 0 -1.76,1.19 v 0 A 1.08,1.08 0 0 1 17.45,25 v 0 a 1.08,1.08 0 0 0 -1.21,1.75 v 0 a 1.08,1.08 0 0 1 -0.83,1.84 v 0 a 1.08,1.08 0 0 0 -0.5,2.07 v 0 a 1.08,1.08 0 0 1 -0.11,2 v 0 a 1.08,1.08 0 0 0 0.2,2.07 v 0 a 1.08,1.08 0 0 1 0.63,1.92 v 0 a 1.08,1.08 0 0 0 1,1.86 v 0 a 1.08,1.08 0 0 1 1.28,1.56 v 0 a 1.08,1.08 0 0 0 1.63,1.37 v 0 a 1.08,1.08 0 0 1 1.76,1 v 0 a 1.08,1.08 0 0 0 2,0.69 v 0 a 1.08,1.08 0 0 1 2,0.29 v 0 a 1.08,1.08 0 0 0 2.12,-0.08 v 0 a 1.08,1.08 0 0 1 2,-0.45 v 0 a 1.08,1.08 0 0 0 1.95,-0.85 v 0 a 1.08,1.08 0 0 1 1.67,-1.13 v 0 a 1.08,1.08 0 0 0 1.51,-1.49 v 0 a 1.08,1.08 0 0 1 1.15,-1.66 v 0 a 1.08,1.08 0 0 0 0.87,-1.94 v 0 a 1.08,1.08 0 0 1 0.47,-2 v 0 a 1.08,1.08 0 0 0 0.23,-2.1 z M 26,40.17 A 7.92,7.92 0 1 1 33.92,32.25 7.92,7.92 0 0 1 26,40.17 Z"
                 inkscape:connector-curvature="0"
                 style="fill:#ba5e43" />
            </g>
          </g>
        </g>
        <g
           id="_Grupo_11"
           data-name="&lt;Grupo&gt;">
          <circle
             id="_Trazado_2"
             data-name="&lt;Trazado&gt;"
             class="cls-4"
             cx="26.02"
             cy="32.25"
             r="4.23"
             style="fill:#ddd8bf" />
        </g>
      </g>
      <g
         id="_Grupo_12"
         data-name="&lt;Grupo&gt;">
        <g
           id="_Grupo_13"
           data-name="&lt;Grupo&gt;">
          <g
             id="_Grupo_14"
             data-name="&lt;Grupo&gt;">
            <g
               id="_Grupo_15"
               data-name="&lt;Grupo&gt;">
              <path
                 id="_Trazado_compuesto_3"
                 data-name="&lt;Trazado compuesto&gt;"
                 class="cls-5"
                 d="m 51.52,18.76 v 0 a 0.8,0.8 0 0 1 -0.19,-1.47 v 0 a 0.79,0.79 0 0 0 -0.48,-1.48 v 0 a 0.79,0.79 0 0 1 -0.71,-1.3 v 0 a 0.79,0.79 0 0 0 -1,-1.21 v 0 a 0.79,0.79 0 0 1 -1.12,-1 v 0 a 0.79,0.79 0 0 0 -1.34,-0.77 v 0 a 0.78,0.78 0 0 1 -1.39,-0.48 v 0 a 0.78,0.78 0 0 0 -1.53,-0.23 v 0 a 0.78,0.78 0 0 1 -1.46,0.06 v 0 a 0.78,0.78 0 0 0 -1.5,0.35 v 0 a 0.78,0.78 0 0 1 -0.63,0.81 4.2,4.2 0 0 1 -3.7,3.49 0.79,0.79 0 0 1 -0.83,0.85 v 0 a 0.79,0.79 0 0 0 -0.36,1.52 v 0 a 0.8,0.8 0 0 1 -0.08,1.48 v 0 a 0.79,0.79 0 0 0 0.2,1.55 v 0 a 0.79,0.79 0 0 1 0.46,1.41 v 0 a 0.79,0.79 0 0 0 0.74,1.37 v 0 a 0.79,0.79 0 0 1 0.93,1.15 v 0 a 0.79,0.79 0 0 0 1.18,1 v 0 a 0.78,0.78 0 0 1 1.28,0.73 v 0 a 0.78,0.78 0 0 0 1.46,0.5 v 0 a 0.78,0.78 0 0 1 1.45,0.21 v 0 a 0.78,0.78 0 0 0 1.54,-0.06 v 0 A 0.78,0.78 0 0 1 45.85,27 v 0 a 0.78,0.78 0 0 0 1.42,-0.62 v 0 a 0.79,0.79 0 0 1 1.21,-0.83 v 0 a 0.79,0.79 0 0 0 1.1,-1.1 v 0 a 0.79,0.79 0 0 1 0.84,-1.22 v 0 a 0.79,0.79 0 0 0 0.63,-1.42 v 0 a 0.79,0.79 0 0 1 0.34,-1.44 v 0 a 0.80761996,0.80761996 0 0 0 0.13,-1.61 z M 43.35,25 A 5.82,5.82 0 1 1 49.1,19.18 5.78,5.78 0 0 1 43.35,25 Z"
                 inkscape:connector-curvature="0"
                 style="fill:#a6cbc2" />
            </g>
          </g>
        </g>
        <g
           id="_Grupo_16"
           data-name="&lt;Grupo&gt;">
          <g
             id="_Grupo_17"
             data-name="&lt;Grupo&gt;">
            <g
               id="_Grupo_18"
               data-name="&lt;Grupo&gt;">
              <path
                 id="_Trazado_compuesto_4"
                 data-name="&lt;Trazado compuesto&gt;"
                 class="cls-6"
                 d="m 50.77,18.76 v 0 a 0.8,0.8 0 0 1 -0.19,-1.47 v 0 A 0.79,0.79 0 0 0 50.1,15.81 v 0 a 0.79,0.79 0 0 1 -0.71,-1.3 v 0 a 0.79,0.79 0 0 0 -1,-1.21 v 0 a 0.79,0.79 0 0 1 -1.12,-1 v 0 a 0.79,0.79 0 0 0 -1.34,-0.77 v 0 a 0.78,0.78 0 0 1 -1.39,-0.48 v 0 A 0.78,0.78 0 0 0 43,10.82 v 0 a 0.78,0.78 0 0 1 -1.46,0.06 v 0 a 0.78,0.78 0 0 0 -1.5,0.35 v 0 a 0.78,0.78 0 0 1 -1.34,0.59 v 0 a 0.79,0.79 0 0 0 -1.28,0.87 v 0 a 0.79,0.79 0 0 1 -1,1 v 0 A 0.82707315,0.82707315 0 0 0 35.41,15 v 0 a 0.79,0.79 0 0 1 -0.6,1.35 v 0 a 0.79,0.79 0 0 0 -0.36,1.52 v 0 a 0.8,0.8 0 0 1 -0.08,1.48 v 0 a 0.79,0.79 0 0 0 0.2,1.55 v 0 a 0.79,0.79 0 0 1 0.46,1.41 v 0 a 0.79,0.79 0 0 0 0.74,1.37 v 0 a 0.79,0.79 0 0 1 0.93,1.15 v 0 a 0.79,0.79 0 0 0 1.18,1 v 0 a 0.78,0.78 0 0 1 1.28,0.73 v 0 a 0.78,0.78 0 0 0 1.46,0.5 v 0 a 0.78,0.78 0 0 1 1.45,0.21 v 0 a 0.78,0.78 0 0 0 1.54,-0.06 v 0 A 0.78,0.78 0 0 1 45.1,27 v 0 a 0.78,0.78 0 0 0 1.42,-0.62 v 0 a 0.79,0.79 0 0 1 1.21,-0.83 v 0 a 0.79,0.79 0 0 0 1.1,-1.1 v 0 a 0.79,0.79 0 0 1 0.84,-1.22 v 0 a 0.79,0.79 0 0 0 0.63,-1.42 v 0 a 0.79,0.79 0 0 1 0.34,-1.44 v 0 a 0.80761996,0.80761996 0 0 0 0.13,-1.61 z M 42.59,25 A 5.82,5.82 0 1 1 48.34,19.18 5.78,5.78 0 0 1 42.59,25 Z"
                 inkscape:connector-curvature="0"
                 style="fill:#2b4348" />
            </g>
          </g>
        </g>
        <g
           id="_Grupo_19"
           data-name="&lt;Grupo&gt;">
          <ellipse
             id="_Trazado_3"
             data-name="&lt;Trazado&gt;"
             class="cls-4"
             cx="43.349998"
             cy="19.15"
             rx="3.03"
             ry="3.0699999"
             style="fill:#ddd8bf" />
        </g>
      </g>
    </g>
  </g>
</svg>
