<svg id="Capa_1" data-name="Capa 1" xmlns="http://www.w3.org/2000/svg" viewBox="0 0 78.75 51.17"><defs><style>.cls-1{fill:#d4e2ee;}.cls-2{fill:#ead9be;}.cls-3{fill:#2b2a29;}.cls-4{fill:#212120;}.cls-5{fill:#0d0c0d;}.cls-6{fill:none;stroke:#070308;stroke-miterlimit:10;stroke-width:4px;}.cls-7{fill:#070308;}.cls-8{fill:#fff;}.cls-9{fill:#1a3041;}.cls-10{fill:#3c3c3c;}.cls-11{fill:#c65837;}.cls-12{font-size:8.92px;fill:#211915;font-family:MyriadPro-Regular, Myriad Pro;}.cls-13{letter-spacing:-0.01em;}.cls-14{letter-spacing:0em;}.cls-15{letter-spacing:0em;}.cls-16{letter-spacing:-0.01em;}.cls-17{letter-spacing:-0.01em;}</style></defs><title>CONTRATO A LA VISTA</title><path class="cls-1" d="M33.47,29.24a21.1,21.1,0,1,0,5.41-14.1c-.93,1-5.23.37-5.94,1.58s2.15,4.28,1.69,5.62a21.06,21.06,0,0,0-1.15,6.9"/><ellipse class="cls-2" cx="6.73" cy="36.5" rx="1.16" ry="0.9" transform="translate(-9.37 3.06) rotate(-15.26)"/><ellipse class="cls-2" cx="26.2" cy="17.48" rx="1.09" ry="0.85" transform="translate(-0.11 0.16) rotate(-0.35)"/><path class="cls-3" d="M27.08,18H25.34s0,1.88-.15,3.85c-.3,3.61-.79,3.82-.86,3.88-.88.76-3,.56-3.72.48h0a17.61,17.61,0,0,0-2.82-.11c-.65,0-1.75.37-2.79.36s-3.25-.38-3.66-.39a22.41,22.41,0,0,0-2.71.1h0a4.65,4.65,0,0,0-4.1,4.13,15.44,15.44,0,0,0,1.14,6l1.61-.66a13.31,13.31,0,0,1-.87-4.94c.16-1.75,2.26-2.25,2.28-2.26a1,1,0,0,1,1,.47c.48.69.1,7.11.1,7.11a24.53,24.53,0,0,0,5.18.32,25.48,25.48,0,0,0,4.89-.71s-.15-6.48-.07-6.84,2.55-.48,2.56-.48h.35a4,4,0,0,0,2.67-.88C25.88,27,26.59,26,26.92,22,27.09,19.92,27.08,18.06,27.08,18Z"/><path class="cls-4" d="M9.8,36c0,1.35.12,4,.08,4.59S9.71,45,9.71,45l1.41.14s.31-4,.32-4.47,0-1.9.4-2.39,5.83-.82,6.19-.56.39,3.16.39,3.77,0,4.16,0,4.16h1.46l.16-4.51-.18-5.44A50.53,50.53,0,0,1,9.8,36Z"/><path class="cls-3" d="M10.5,46.09c-.85,0-1.83.09-1.54-.75a1.47,1.47,0,0,1,1.61-.77c.85.07,1.5.53,1.45,1S11.58,46.05,10.5,46.09Z"/><path class="cls-5" d="M12.18,46a.22.22,0,0,1-.22.22H9A.22.22,0,0,1,8.81,46h0A.22.22,0,0,1,9,45.76H12a.22.22,0,0,1,.22.22Z"/><path class="cls-3" d="M19.3,46.3c-.85,0-1.83.09-1.54-.75a1.47,1.47,0,0,1,1.61-.77c.85.07,1.5.53,1.45,1S20.38,46.27,19.3,46.3Z"/><path class="cls-5" d="M21,46.2a.22.22,0,0,1-.22.22H17.82a.22.22,0,0,1-.22-.22h0a.22.22,0,0,1,.22-.22h2.93a.22.22,0,0,1,.22.22Z"/><line class="cls-6" x1="15.29" y1="30.95" x2="15.34" y2="36.06"/><circle class="cls-7" cx="16.03" cy="32.83" r="0.24"/><circle class="cls-7" cx="16.03" cy="31.72" r="0.24"/><circle class="cls-7" cx="16.03" cy="34.12" r="0.24"/><circle class="cls-7" cx="16.03" cy="35.42" r="0.24"/><path class="cls-8" d="M11.74,26.42c1.1.88,3.55,4.82,3.55,4.82s2.58-3.8,3.51-4.87Z"/><ellipse class="cls-9" cx="15.36" cy="27.04" rx="0.98" ry="0.6" transform="translate(-1.38 0.83) rotate(-2.98)"/><polygon class="cls-9" points="15.09 27.23 14.7 29.77 15.29 31.24 15.89 29.76 15.8 27.23 15.09 27.23"/><path class="cls-10" d="M18.89,26.33s-.86,3.28-1.19,3.92-2.41,1-2.41,1a7.14,7.14,0,0,1,1.64-2.93Z"/><path class="cls-10" d="M11.69,26.33s.86,3.28,1.19,3.92,2.41,1,2.41,1a7.14,7.14,0,0,0-1.64-2.93Z"/><path class="cls-2" d="M10,25.84c.64.92,4.35.89,7.2.87,3.43,0,3.39-3.18,3.4-4.52a11.4,11.4,0,0,0-2.44-7.8c-.81-1.35-6.39-.32-7.52,1.1a9.54,9.54,0,0,0-2.06,5A8.13,8.13,0,0,0,10,25.84Z"/><path class="cls-3" d="M11.54,16.9c12.35.5,7.35-5.88,7.35-5.88s-1.85,3.15-5.4.58c-1.65-1.19-6.26.32-5.83,3.86-5.07,5.81,2,10.15,2.55,10.61a4.51,4.51,0,0,0,.18-1.77,1.32,1.32,0,0,0-.4-.87c-1-1-1.51-2.35-.71-3s1.59.82,1.79.45A5.64,5.64,0,0,0,11.54,16.9Z"/><ellipse class="cls-3" cx="18.43" cy="19.41" rx="0.39" ry="0.74" transform="translate(-1.03 1.04) rotate(-3.13)"/><ellipse class="cls-3" cx="14.89" cy="20.15" rx="0.4" ry="0.77" transform="translate(-2.16 1.79) rotate(-6.41)"/><path class="cls-11" d="M15.06,23.13c-.06.17,0,1.1,1.75,1.24s2.13-1.33,2-1.56-3.81,0-3.74.32"/><path class="cls-2" d="M16.17,22s3.38-.25,4.51-.48,1.29-2,.17-1.91-1.86.23-1.86.23Z"/><text class="cls-12" transform="translate(37.39 27.23) scale(1.03 1)"><tspan class="cls-13">C</tspan><tspan x="5.08" y="0">o</tspan><tspan class="cls-14" x="9.98" y="0">n</tspan><tspan class="cls-15" x="14.89" y="0">t</tspan><tspan class="cls-16" x="17.85" y="0">r</tspan><tspan class="cls-14" x="20.72" y="0">a</tspan><tspan class="cls-17" x="24.99" y="0">t</tspan><tspan x="27.89" y="0">o</tspan><tspan x="0.56" y="10.71">a la vista</tspan></text></svg>