<?xml version="1.0" encoding="UTF-8" standalone="no"?>
<svg
   xmlns:dc="http://purl.org/dc/elements/1.1/"
   xmlns:cc="http://creativecommons.org/ns#"
   xmlns:rdf="http://www.w3.org/1999/02/22-rdf-syntax-ns#"
   xmlns:svg="http://www.w3.org/2000/svg"
   xmlns="http://www.w3.org/2000/svg"
   xmlns:sodipodi="http://sodipodi.sourceforge.net/DTD/sodipodi-0.dtd"
   xmlns:inkscape="http://www.inkscape.org/namespaces/inkscape"
   id="Capa_1"
   data-name="Capa 1"
   viewBox="0 0 40 40.000001"
   version="1.1"
   sodipodi:docname="edificios.svg"
   width="40"
   height="40"
   inkscape:version="0.92.4 (5da689c313, 2019-01-14)">
  <metadata
     id="metadata584">
    <rdf:RDF>
      <cc:Work
         rdf:about="">
        <dc:format>image/svg+xml</dc:format>
        <dc:type
           rdf:resource="http://purl.org/dc/dcmitype/StillImage" />
        <dc:title>LOGROS</dc:title>
      </cc:Work>
    </rdf:RDF>
  </metadata>
  <sodipodi:namedview
     pagecolor="#ffffff"
     bordercolor="#666666"
     borderopacity="1"
     objecttolerance="10"
     gridtolerance="10"
     guidetolerance="10"
     inkscape:pageopacity="0"
     inkscape:pageshadow="2"
     inkscape:window-width="1366"
     inkscape:window-height="705"
     id="namedview582"
     showgrid="false"
     inkscape:zoom="5.6064815"
     inkscape:cx="61.713681"
     inkscape:cy="20.371914"
     inkscape:window-x="-8"
     inkscape:window-y="-8"
     inkscape:window-maximized="1"
     inkscape:current-layer="Capa_1" />
  <defs
     id="defs300">
    <style
       id="style298">.cls-1{fill:#fff;}.cls-2{fill:#2a8ec8;}.cls-3{fill:#f9f0dd;}.cls-4{fill:#1a4968;}.cls-5{fill:#c8533a;}.cls-6{fill:#a6a8ac;}.cls-7{fill:#6e6e71;}.cls-8{fill:#343f4c;}.cls-9{fill:#8ec1cd;}.cls-10{fill:#e9be65;}.cls-11{fill:#1a8baf;}.cls-12{fill:#302e30;}.cls-13{fill:#e3ae37;}.cls-14{fill:#c23c17;}.cls-15{fill:#bcbebf;opacity:0.5;}.cls-16{fill:#808285;opacity:0.6;}.cls-17{fill:#48240d;}.cls-18{fill:#b2a321;}.cls-19{fill:#988b26;}.cls-20{fill:#e7b737;}</style>
  </defs>
  <title
     id="title302">LOGROS</title>
  <circle
     class="cls-1"
     cx="120.94207"
     cy="-6.3887653"
     id="circle304"
     style="fill:#ffffff"
     r="13.19" />
  <circle
     class="cls-2"
     cx="10.053412"
     cy="120.74322"
     transform="rotate(-88.31)"
     id="circle306"
     style="fill:#2a8ec8"
     r="9.1899996" />
  <path
     class="cls-3"
     d="m 117.59207,1.7412291 c 0,-0.19 -0.2,-0.09 -0.26,-0.23 -0.06,-0.14 0.11,-0.1 0.15,-0.16 v -0.26 c 0,0 -0.09,0 -0.08,-0.06 0.01,-0.06 0.08,0 0.1,0.05 0.02,0.05 0,-0.07 -0.08,-0.10999995 -0.08,-0.04 -0.16,-0.15 -0.11,-0.19 0.05,-0.04 0.31,0.18 0.31,0 0,-0.18 -0.09,-0.19 -0.08,-0.25 0.01,-0.06 0.5,0.07 0.51,-0.11 0.01,-0.18 0.12,-0.2 0,-0.23 l -0.23,-0.26 a 2.1,2.1 0 0 0 0.32,0.08 c 0.13,0 0.42,-0.25 0.36,-0.41 0,0 0,-0.25 0.1,-0.19 0.1,0.06 -0.1,0.17 0,0.17 0.1,0 0.24,-0.59000005 0.23,-0.64000005 -0.09,-0.3 0.29,-0.28 0.35,-0.36 0.06,-0.08 0.12,-0.13 0.32,-0.12 0.2,0.01 0.3,-0.37 0.3,-0.47 a 4.45,4.45 0 0 1 0.07,-0.84 c 0.18,-0.24 0.75,-0.79 0.39,-1.1 0,0 -0.15,0 -0.19,0 -0.04,0 -0.19,-0.26 -0.35,-0.3 -0.16,-0.04 -0.46,0 -0.53,0 -0.07,0 0,-0.19 0,-0.2 v 0 c 0,-0.32 -0.43,0 -0.5,0.08 0,-0.09 0.24,-0.4 0,-0.35 0,0 -0.08,-0.54 -0.19,-0.54 -0.11,0 -0.11,-0.16 -0.19,-0.18 -0.08,-0.02 -0.18,-0.06 -0.28,-0.07 -0.1,-0.01 -0.3,-0.14 -0.34,-0.09 0.07,-0.27 -0.18,-0.19 -0.27,-0.29 -0.09,-0.1 0,-0.25 -0.07,-0.16 -0.07,0.09 -0.1,0 -0.12,-0.09 -0.02,-0.09 0.13,0 0.12,0 -0.01,0 -0.69,0.11 -0.78,0 0.07,-0.07 -0.33,-0.26 -0.2,-0.09 a 0.15,0.15 0 0 1 -0.14,0 v 0.08 c 0,-0.05 0.12,-0.27 0,-0.22 -0.12,0.05 -0.19,0.13 -0.3,0.13 -0.11,0 -0.32,0.46 -0.35,0.45 -0.03,-0.01 -0.08,-0.21 -0.23,-0.21 -0.15,0 -0.19,0.08 -0.28,0.08 -0.09,0 -0.37,-0.35 -0.24,-0.47 0.13,-0.12 0.13,-0.4 0,-0.42 -0.13,-0.02 -0.12,-0.11 -0.24,-0.06 a 0.59,0.59 0 0 1 -0.28,0 c 0.1,-0.11 0.11,-0.27 0.2,-0.38 0.09,-0.11 0.19,-0.33 0,-0.37 a 0.49,0.49 0 0 0 -0.5,0.37 c 0,0 -0.36,0 -0.39,0.05 a 2.27,2.27 0 0 1 -0.2,-0.3 c -0.09,-0.13 0,-0.28 0,-0.43 a 1,1 0 0 1 0.55,-0.81 1.35,1.35 0 0 0 0.34,0 c 0,0.12 0.23,0.09 0.19,0 -0.04,-0.09 0.05,0.08 0.08,0.08 0.03,0 0,-0.09 0,-0.1 a 1.28,1.28 0 0 0 0.23,-0.14 c 0,0 0,0.06 0,0.07 0,0.01 0.18,0 0.2,0 0.02,0 0,0.15 0.19,0.07 0.19,-0.08 0.13,0.33 0.11,0.3 -0.02,-0.03 0,0 0,0 a 0.62,0.62 0 0 0 0,0.16 c 0,0 0,0 0,0 0,0 0.1,0.26 0.16,0.19 a 0.62,0.62 0 0 0 0.11,-0.49 c -0.09,-0.31 0.34,-0.75 0.65,-0.77 0,0 0.25,-0.19 0.14,-0.2 0.1,-0.12 0,-0.09 0,-0.15 0,-0.06 0.12,-0.3000001 0.17,-0.3000001 0.05,0 -0.13,0.2300001 -0.06,0.2200001 0.07,-0.01 -0.06,0.08 0,0.1 0.06,0.02 0.17,-0.28 0.17,-0.3 0,-0.02 0.05,0.08 0,0.08 -0.05,0 0.16,-0.2200001 0.19,-0.2600001 0.03,-0.04 0.27,0 0.23,0 v 0 c 0.06,0 0.11,0 0.13,-0.07 h 0.08 v 0 c 0,0.05 0.23,-0.12 0.13,-0.13 a 0.23,0.23 0 0 1 -0.06,0.06 c 0,0 0,-0.06 0,-0.08 0,-0.02 0.26,-0.2 0.36,-0.27 0.1,-0.07 -0.07,0.07 0,0.07 a 0.87,0.87 0 0 0 0.36,-0.18 c 0,0.07 0.14,0 0.19,-0.06 0.05,-0.06 -0.08,0.05 -0.08,0.05 0,0 0.1,0 0.11,0 a 0.62,0.62 0 0 1 -0.25,0.1 c -0.09,0 -0.06,0.24 0,0.15 0.06,-0.09 0.11,-0.12 0.16,-0.15 0.05,-0.03 0,0 0,0 0,0 0.55,-0.25 0.47,-0.26 -0.08,-0.01 0.09,-0.09 0,-0.09 -0.09,0 -0.13,0.14 -0.17,0.18 v 0 a 0.47,0.47 0 0 1 -0.21,-0.07 c -0.1,-0.13 0.06,-0.19 0,-0.23 h -0.22 c 0.05,0 0.24,0 0.28,-0.07 0.15,-0.3 -0.8,0.19 -0.8,0.19 a 6.46,6.46 0 0 1 0.59,-0.37 c 0.2,-0.1 0.76,0.14 0.9,-0.12 a 2.12,2.12 0 0 0 0.33,-0.1 0.17,0.17 0 0 0 0,-0.31 c 0,0 0.07,0 0.08,0 l -0.06,-0.09 a 0.53,0.53 0 0 1 -0.18,0 c -0.06,0 0,-0.12 -0.08,-0.16 -0.08,-0.04 0.11,-0.06 0.1,-0.1 -0.01,-0.04 0,0 0,0 a 2.77,2.77 0 0 0 -0.05,-0.43 c 0,0 -0.43,0.25 -0.45,0.28 -0.02,0.03 -0.17,-0.32 0,-0.35 h -0.15 c 0,0 0.06,0 0.06,0 0,0 -0.72,-0.16 -0.58,0 a 0.94,0.94 0 0 0 -0.22,0.26 c -0.05,0.12 -0.12,0 0,0.18 0.12,0.18 -0.22,0.29 -0.31,0.33 -0.09,0.04 -0.2,0 -0.23,0.21 -0.03,0.21 -0.09,0.18 -0.15,0.28 0,-0.08 -0.1,0 -0.15,0 a 0.07,0.07 0 0 0 -0.05,-0.1 c 0,0 0.32,-0.6 -0.14,-0.4 0.09,-0.12 -0.46,-0.25 -0.54,-0.25 a 0.78,0.78 0 0 0 0.09,-0.21 c -0.07,-0.07 -0.21,0 0,-0.16 0.21,-0.16 0.22,-0.23 0.31,-0.21 0.09,0.02 0.21,-0.11 0.24,-0.1 0.29,0.08 0,-0.14 -0.07,-0.16 0.14,0 0.24,0.11 0.35,0 0,0.13 0.42,-0.1 0.37,-0.13 a 0.74,0.74 0 0 1 0.18,-0.06 c -0.12,0.09 -0.23,0.21 -0.34,0.28 0.21,0 0,0 0.11,0.06 0.11,0.06 0.27,-0.24 0.31,-0.06 0.18,0.07 0.28,0 0.12,-0.06 0.09,0 -0.14,-0.24 -0.12,-0.24 0.02,0 0,0.08 -0.05,0.09 a 0.1,0.1 0 0 0 0,-0.13 c 0.06,0 0.19,0.11 0.2,0.1 0.01,-0.01 0,-0.07 0,-0.08 0,-0.01 0.06,0 0.07,0 0,0.08 0.36,-0.1 0.31,-0.14 -0.05,-0.04 0.11,-0.15 0.09,-0.21 -0.02,-0.06 0.35,0 0.38,-0.1 a 0.19,0.19 0 0 0 0.08,0.05 c 0,0 0,0 0,0 h 0.12 v 0 c 0,0 -0.12,0 -0.11,0 0.01,0 0.09,0 0.11,0 0.02,0 0,0 0.07,0 0.07,0 0,0 0,0.06 0,0.06 -0.08,0 -0.07,0 0.01,0 0.17,0.06 0.1,0 v 0 c 0,0 0.11,0.14 0,0.15 -0.11,0.01 -0.25,0.09 -0.25,0.18 0,0.09 -0.46,-0.07 -0.5,0.1 -0.04,0.17 0.38,0 0.37,0 -0.01,0 0.05,0.12 0.07,0.15 a 0.82,0.82 0 0 0 0.48,0.24 c 0.1,0 -0.11,-0.23 -0.12,-0.24 a 0.51,0.51 0 0 1 0.24,0.14 c 0,0.15 0.1,-0.13 0.09,-0.13 v 0 c 0.05,0.12 0,0 0,-0.09 0,-0.09 0,0 0,0 0,0 -0.14,-0.21 -0.16,-0.2 0,-0.2 0.31,0.25 0.39,0 0.06,0.06 0.22,-0.07 0.27,-0.11 v 0 l -0.46,-0.24 c 0,0 0.21,0 0.21,-0.07 h -0.09 v 0 c 0,0 0.06,0 0.08,0 0.02,0 -0.09,-0.05 -0.12,0 -0.03,0.05 0.07,0 0.06,-0.06 -0.01,-0.06 -0.32,-0.16 -0.36,-0.07 0,-0.13 -0.11,-0.1 -0.14,-0.17 -0.03,-0.07 0,0 -0.21,-0.13 -0.21,-0.13 -0.05,0.08 -0.05,0.08 0,0 0.18,0 0.19,0 0.01,0 -0.32,0.06 -0.32,0.07 0,0.01 0.11,-0.1 0.12,-0.16 0.01,-0.06 -0.55,0 -0.58,0.17 -0.03,0.17 0.09,0 0.08,0 -0.32,0 0.21,-0.24 0.21,-0.24 0,0 -0.68,0.1 -0.69,0.26 h 0.19 c -0.59,0.05 0.29,0.13 0.28,0.13 -0.01,0 -0.16,0 -0.19,0 -0.03,0 -0.07,0.1 -0.07,0.1 a 1.47,1.47 0 0 1 -0.25,0.11 c 0,0 0.06,0 0,0 -0.06,0 -0.14,0.08 -0.07,0.08 -0.13,0.11 -0.19,-0.07 -0.08,-0.06 0.11,0.01 0,-0.1 0,-0.14 0,-0.04 -0.18,0 -0.18,0 0.19,-0.12 0.07,-0.06 0.08,-0.25 0.11,0 0.53,-0.09 0.58,-0.19 0,-0.14 -0.53,0 -0.57,0.07 -0.04,0.07 -0.31,0.27 -0.29,0.27 0.02,0 -0.11,0 -0.12,0 -0.01,0 0.15,0.09 0.16,0.1 0.01,0.01 -0.16,0 -0.16,0.06 h 0.06 c 0,0 -0.31,0.11 -0.27,0.14 v 0 c 0,0 0.11,-0.09 0.11,-0.09 0,0 -0.09,0 -0.11,0 -0.02,0 0.27,-0.07 0.29,-0.1 0.02,-0.03 -0.46,0 -0.44,0 0.02,0 0.09,0 0.11,0 a 0.7,0.7 0 0 1 -0.64,0.05 c 0.11,0 0,0 0,-0.07 0,-0.07 -0.31,0 -0.33,0 -0.02,0 0.06,0 0.07,0.05 0.01,0.05 -0.5,0.18 -0.5,0.18 v 0 a 0.07,0.07 0 0 0 -0.07,-0.1 h 0.08 -0.16 a 9.18,9.18 0 0 0 -3.37,5.2400001 v 0 c 0,0 -0.09,0.09 0,0.14 a 0.21,0.21 0 0 1 0.11,0.12 1.26,1.26 0 0 0 0.14,0.24 c 0.11,0.19 0,0.27 0,0.4 0,0.13 0.55,0.46 0.74,0.53 0.19,0.07 0.21,0 0.41,0 0.2,0 0.28,0.27 0.33,0.27 0.05,0 0.34,0.13 0.48,0.14 0.14,0.01 0.15,0.53 0.24,0.53 v -0.07 c 0.12,0 0.12,0.3 0.23,0.31 0.11,0.01 0.08,-0.13 0.15,0 0.07,0.13 0,0 -0.06,0 -0.06,0 0,0.06 0,0.06 0,0 0.35,0 0.16,-0.13 0.05,0 0.17,-0.16 0.21,-0.07 a 1.74,1.74 0 0 1 0.13,0.31 0.56,0.56 0 0 0 0,0.38 c 0,0.07 -0.32,0.24 -0.21,0.32 -0.18,0.1 -0.1,0.14 -0.2,0.26 -0.1,0.12 0,0.37 0.06,0.24 0,0.2 -0.21,0.22 -0.11,0.41 0.1,0.19 -0.14,-0.09 0.12,0.19 a 1.46,1.46 0 0 1 0.13,0.23 2.24,2.24 0 0 0 0.16,0.38 c 0.17,0.26 0.23,0.5 0.5,0.68 0.27,0.18 0.47,0.25 0.47,0.57 0,0.32 0,0.38 0,0.57 a 3.83,3.83 0 0 0 0,0.59000005 2,2 0 0 0 0.1,0.61 2.08,2.08 0 0 1 0,0.5 c 0,0 -0.05,0 -0.06,0 -0.01,0 0.19,0.61 0.21,0.62 0.02,0.01 0,0 0,0 0,0 0.11,0.33999995 0.12,0.18999995 0,0 -0.07,-0.21999995 0,-0.19999995 0.07,0.02 0.12,0.35999995 0.08,0.40999995 -0.04,0.05 0,-0.09 -0.09,-0.1 -0.09,-0.01 0,0.27 0,0.37 v 0 0 c 0,0 0.15,0 0.15,0 0,0 0.06,0.12 0,0.15 h -0.07 q 0.4,0.21 0.82,0.38 c 0,0 0.07,-0.41 0.07,-0.31 z m 1.44,-13.7000001 z m -0.17,0.06 a 0.25,0.25 0 0 1 0.13,0 c 0,0 -0.13,0 -0.13,0 z m -2,1.58 z m 1.62,-2.85 c -0.08,0 0,0 0,0 z m -0.37,-1 z m -0.84,0.31 v 0 a 0.18,0.18 0 0 0 0,0.12 0.18,0.18 0 0 1 0.01,-0.13 z m -0.14,0.44 c -0.08,0 -0.17,-0.07 -0.2,-0.06 a 0.29,0.29 0 0 1 0.21,0.06 z m -0.61,-0.31 c 0.08,0 0,0 0,0 z m -1.32,5.3100001 v 0 c 0,0 0.01,0 0,0 z m -0.82,-0.49 c 0.06,-0.07 0,0 0,0 z m 0.15,2.56 v 0 c 0,0 -0.08,0 -0.11,0 -0.03,0 0,-0.08 0,-0.08 0,0 0.17,0.06 0.12,0.09 z m 1.61,0.3 v 0 c -0.12,0.14 0,-0.14 0,-0.17 0,-0.03 0.09,0.1 0,0.16 -0.09,0.06 0.01,0.01 0.01,0.01 z m 0.54,7.51 z m 0,-0.16 z m 0,0.09 a 0.23,0.23 0 0 1 0,0.05 0.12,0.12 0 0 1 -0.03,-0.06 z"
     id="path308"
     inkscape:connector-curvature="0"
     style="fill:#f9f0dd" />
  <path
     class="cls-3"
     d="m 121.99207,-12.858771 a 0.9,0.9 0 0 1 0,0.12 c 0,0 0.06,-0.06 0.08,-0.06 0.02,0 -0.12,0.08 -0.11,0.11 0.01,0.03 0.08,0 0.08,0 0,0 0,0.07 0,0.1 0,0.03 0.1,-0.07 0.1,-0.07 0,0 -0.1,0.18 0.12,0.1 0,0 -0.06,0.09 0,0.1 0,0.16 -0.21,0 -0.22,0.11 v 0 c 0,0 -0.05,0 0,0.07 0.05,0.07 0,0 0.06,0 0.06,0 -0.13,0.1 -0.12,0.12 0.01,0.02 0.18,0 0.23,0 0.05,0 -0.33,0.11 -0.31,0.17 0.02,0.06 0.75,-0.06 0.74,-0.14 -0.01,-0.08 -0.07,0 -0.08,0 -0.01,0 0.22,-0.24 0,-0.18 0.06,-0.06 -0.12,-0.32 -0.16,-0.35 -0.04,-0.03 -0.1,-0.07 0,-0.13 0.1,-0.06 -0.1,-0.05 -0.15,-0.12 -0.05,-0.07 0.21,-0.16 0.17,-0.19 -0.04,-0.03 -0.1,0 -0.11,0 -0.01,0 0,0 0,0.05 a 2.12,2.12 0 0 1 -0.22,0.11 c 0,0 0,0 0,0.05 0,0.05 -0.06,0 -0.11,0 a 0.46,0.46 0 0 1 0,0.14 c 0,0 -0.01,-0.1 0.01,-0.11 z"
     id="path310"
     inkscape:connector-curvature="0"
     style="fill:#f9f0dd" />
  <path
     class="cls-3"
     d="m 121.90207,-12.308771 c 0,0 0,-0.15 0,-0.17 0.26,-0.19 -0.22,-0.23 -0.24,-0.1 -0.02,0.13 0,0 0,0 0,0 -0.23,0.17 -0.12,0.16 -0.31,0.24 0.26,0.29 0.36,0.11 z"
     id="path312"
     inkscape:connector-curvature="0"
     style="fill:#f9f0dd" />
  <path
     class="cls-3"
     d="m 125.24207,-14.558771 a 0.31,0.31 0 0 1 0.08,0.05 c -0.13,0 -0.13,0 -0.22,0.06 0,-0.2 -0.13,0 -0.16,0.07 -0.03,0.07 -0.09,-0.06 -0.09,0 v 0 c 0,0 0,-0.06 -0.06,0 -0.06,0.06 0,0 0,-0.06 0,-0.06 -0.08,0 -0.1,0 -0.02,0 -0.23,0.16 -0.19,0.13 0.04,-0.03 0.17,-0.06 0.2,-0.06 0,0.18 -0.37,0.32 -0.4,0.39 -0.03,0.07 -0.27,0.12 -0.29,0.16 -0.02,0.04 0,0 0,0.09 0,0.09 -0.18,0.05 -0.27,0.05 -0.09,0 0.07,0.4 0.07,0.41 -0.16,0.19 0.38,0.17 0.44,0 0,0.06 0.25,0.41 0.17,0.41 -0.08,0 -0.08,0.12 -0.08,0.17 h -0.06 c 0,0.08 0.26,0 0.12,0 0.08,-0.06 0.17,0 0.26,-0.1 0.09,-0.1 0.36,-0.16 0.23,-0.16 -0.13,0 0,0 0,0 0,-0.15 0.3,-0.36 0.22,-0.41 -0.08,-0.05 -0.23,-0.13 -0.12,-0.24 a 2.83,2.83 0 0 0 0.34,-0.24 c 0,-0.09 0,-0.16 0.17,-0.18 0,0 0.24,0.07 0.19,0.1 -0.22,0 -0.55,0.57 -0.24,0.56 0.31,-0.01 0.51,0 0.73,0.07 -0.14,0 -0.76,0 -0.78,0.19 0,0 0,0.07 0,0.07 0,0 0.11,0 0.13,-0.1 0.02,-0.1 0.08,0.07 0.11,0 -0.07,0.31 -0.33,-0.1 -0.32,0.36 0,0.22 -0.7,0 -0.71,0.18 0,-0.19 -0.24,0 -0.32,0 0.07,0 0,0 0,-0.07 -0.25,0 0,-0.42 0,-0.42 -0.33,0 -0.19,0.39 -0.2,0.39 v 0.08 c 0,-0.07 -0.49,0.21 -0.55,0.29 a 2.64,2.64 0 0 1 -0.41,0.26 c -0.11,0.09 -0.11,0 -0.21,0 v 0 c -0.05,0 0.12,0.15 0,0.15 -0.12,0 -0.26,-0.05 -0.28,0 -0.02,0.05 0.29,0.2 0.33,0.3 0.04,0.1 0,0.4 -0.07,0.39 h -0.37 c -0.28,0 -0.35,-0.08 -0.42,0.18 -0.07,0.26 -0.08,0.33 -0.1,0.48 a 0.21,0.21 0 0 1 0,0.26 c 0.26,-0.12 0.28,0.17 0.48,0.08 0.2,-0.09 0.56,0 0.62,-0.3 0,0 -0.05,-0.05 -0.06,-0.08 -0.01,-0.03 0.16,-0.12 0.14,-0.21 a 1.86,1.86 0 0 1 0.25,-0.13 c 0,0 0,-0.17 0.1,-0.22 0.1,-0.05 0.19,0 0.25,0 0.23,0 0.44,-0.31 0.43,0.05 0,0.07 0.09,0 0.07,0 -0.02,0 0.61,0.45 0.6,0.57 -0.01,0.12 -0.37,0 -0.4,0.08 -0.03,0.08 0.11,0.16 0.16,0.16 0.22,0 0,0 0.17,-0.13 0,0.08 0.17,-0.09 0.18,-0.11 0.01,-0.02 -0.09,-0.11 -0.06,-0.16 0.03,-0.05 0.07,0 0.18,0 0.11,0 -0.28,-0.3 -0.25,-0.26 0.03,0.04 -0.35,-0.39 -0.38,-0.48 -0.03,-0.09 0.2,0.06 0.24,0 0.04,-0.06 0.12,0.26 0.31,0.27 0.19,0.01 0.33,0.34 0.27,0.42 -0.06,0.08 0,0 0,0 0,0 0.52,0.33 0.53,0.32 0.01,-0.01 0,-0.07 0,-0.09 0,-0.02 0.08,0.07 0.1,0 0.02,-0.07 -0.31,-0.34 -0.25,-0.34 0.06,0 0.45,-0.12 0.45,0 0,0.12 -0.17,0.18 0,0.12 a 0.41,0.41 0 0 1 -0.11,0.19 c 0,0 0,0 0.05,0 0.05,0 0,0.06 0.11,0.06 0.11,0 0,0 -0.06,0 -0.06,0 0.07,0.09 0.09,0.1 0.02,0.01 -0.07,0.09 -0.08,0.11 a 0.3,0.3 0 0 1 0.13,-0.08 h -0.07 c 0,0 0,0 0.07,0 0.07,0 -0.08,0.09 0,0.11 0.08,0.02 0.07,-0.1 0.1,-0.12 0.03,-0.02 0,0 0.06,0 0,0.15 0.24,0 0.33,0 0.09,0 0.45,0.07 0.45,0 v 0 a 3.67,3.67 0 0 1 0,0.3900001 c -0.12,0.22 -0.06,0.28 -0.29,0.37 h -0.33 a 0.94,0.94 0 0 1 -0.48,-0.06 3.62,3.62 0 0 0 -0.62,0.05 c -0.28,0 -0.22,0.45 -0.45,0.29 -0.23,-0.16 -0.58,-0.42 -0.86,-0.43 -0.28,-0.01 0.11,-0.3900001 0.05,-0.4700001 -0.06,-0.08 -0.62,0 -0.69,0.06 a 0.84,0.84 0 0 0 -0.75,0.12 c 0,0.05 -0.28,0.05 -0.36,0 -0.32,-0.08 -0.09,0.08 -0.4,0.2000001 -0.31,0.12 -0.2,0.35 -0.34,0.55 -0.14,0.2 -0.35,0.16 -0.42,0.32 -0.07,0.16 -0.6,0.87 -0.5,0.9 a 0.5,0.5 0 0 1 0.06,0.5 c -0.06,0.1 -0.17,0.31 -0.1,0.4 0.07,0.09 0,0.32 0,0.28 l 0.33,0.32 c 0.08,0.12 0.1,0.45 0.32,0.49 0.22,0.04 0.25,0.32 0.38,0.33 0.13,0.01 0.3,-0.12 0.48,-0.12 0.18,0 0.4,0 0.64,-0.09 a 0.93,0.93 0 0 1 0.35,0 c 0.07,0 0.22,0.39 0.29,0.3 0.07,-0.09 0.34,0.06 0.36,0.05 a 1.34,1.34 0 0 1 0,0.51 c -0.05,0.29 0.07,0.38 0.26,0.68 0.19,0.3 0.36,0.94 0.1,1.18 -0.26,0.24 -0.07,0.45 -0.14,0.61 -0.07,0.16 0.38,0.68 0.3,0.75 a 1.44,1.44 0 0 0 0.09,0.66 0.92,0.92 0 0 1 0.23,0.73000005 c 0,0 0.12,0.21 0.07,0.21 -0.05,0 0.14,0.09 0.2,0.07 a 0.72,0.72 0 0 1 0.31,-0.09 0.72,0.72 0 0 0 0.73,-0.21 2.08,2.08 0 0 0 0.49,-0.56000005 c 0,-0.11 0,-0.39 0.15,-0.42 0.39,-0.1 0.24,-0.45 0.19,-0.75 0.07,0 0.89,-0.66 0.78,-0.73 -0.11,-0.07 0,-0.32 0,-0.42 0,-0.1 -0.1,-0.2 -0.08,-0.28 a 1.19,1.19 0 0 0 0,-0.37 c -0.17,-0.24 0.3,-0.71 0.46,-0.88 0.38,-0.41 1,-0.92 1.09,-1.44 0.06,-0.28 -0.18,-0.19 -0.37,-0.15 a 3.74,3.74 0 0 0 -0.39,0.09 c -0.14,0.07 -0.19,-0.12 -0.32,-0.13 0.29,0 -0.43,-0.64 -0.42,-0.73 0.01,-0.09 -0.22,-0.23 -0.22,-0.35 a 0.78,0.78 0 0 0 0,-0.31 c -0.07,-0.17 -0.18,-0.22 -0.16,-0.36 0.02,-0.14 -0.46,-0.59 -0.42,-0.83 0,0.06 0.12,0.3 0.21,0.3 0.09,0 0.06,-0.16 0.06,-0.2 a 1.47,1.47 0 0 1 0,0.16 c 0.05,0.1 0.26,0.36 0.34,0.48 0.08,0.12 0.19,0.4 0.3,0.58 a 2.83,2.83 0 0 0 0.34,0.5 c 0.14,0.13 0,0.5 0.17,0.6 0.17,0.1 0.81,-0.29 1,-0.35 0.19,-0.06 0.13,-0.21 0.35,-0.2 0.06,0 0.19,-0.23 0.24,-0.25 0.19,-0.06 0,-0.18 0.14,-0.25 0.14,-0.07 0.23,-0.12 0.23,-0.25 0,0 -0.52,-0.45 -0.5,-0.53 0.02,-0.08 -0.46,0.44 -0.49,0.25 a 1.34,1.34 0 0 1 0,-0.16 0.21,0.21 0 0 1 0,-0.08 0.19,0.19 0 0 1 -0.06,0.07 4.5,4.5 0 0 0 -0.25,-0.38 c -0.1,-0.3 -0.05,-0.13 0.1,-0.32 0.11,0.16 0.45,0.72 0.71,0.5 0,0 0,0.06 0,0.06 0,0 0.09,-0.06 0.06,-0.09 a 0.11,0.11 0 0 1 -0.17,0.08 c 0.05,0.18 0.09,0.1 0.22,0.15 h 0.11 a 9.21,9.21 0 0 0 -4.58,-6.1500001 c -0.05,0 -0.1,0.05 -0.1,0.06 z"
     id="path314"
     inkscape:connector-curvature="0"
     style="fill:#f9f0dd" />
  <path
     class="cls-3"
     d="m 128.88207,-3.2487709 c 0,0 0,-0.41 -0.1,-0.41 -0.1,0 0,0.11 -0.06,0.13 -0.06,0.02 0,0 -0.08,0 -0.08,0 0,0.06 0,0.07 0,0.01 -0.08,0.12 0,0.13 0.08,0.01 0,0 0,0 0,0 -0.18,0.09 -0.16,0.12 a 0.85,0.85 0 0 1 -0.25,0 c -0.08,0.12 0,0.44 0,0.58 0,0.14 -0.21,0.48 0,0.64 0.31,0.4 0.81,-1.23 0.72,-1.24 -0.09,-0.01 0,0.06 0,0.06 0,0 0.06,-0.1 0,-0.14 z"
     id="path316"
     inkscape:connector-curvature="0"
     style="fill:#f9f0dd" />
  <path
     class="cls-4"
     d="m 129.48207,-3.6887709 v -6.8200001 a 2.34,2.34 0 1 0 -4.68,0 v 6.8300001 a 3.69,3.69 0 1 0 4.68,0 z"
     id="path318"
     inkscape:connector-curvature="0"
     style="fill:#1a4968" />
  <path
     class="cls-5"
     d="m 129.14207,-3.4087709 -0.15,-0.12 v -6.33 a 0.21,0.21 0 0 0 -0.21,-0.2100001 h -3.29 a 0.21,0.21 0 0 0 -0.21,0.2100001 v 6.33 l -0.15,0.12 a 3.16,3.16 0 1 0 4,0 z"
     id="path320"
     inkscape:connector-curvature="0"
     style="fill:#c8533a" />
  <ellipse
     class="cls-1"
     cx="20.110653"
     cy="19.732714"
     id="circle322"
     style="fill:#ffffff;stroke-width:1.44618738"
     rx="19.25441"
     ry="18.897678" />
  <circle
     class="cls-1"
     cx="92.970001"
     cy="23.970013"
     r="13.19"
     id="circle324"
     style="fill:#ffffff" />
  <path
     class="cls-6"
     d="m 31.00056,10.248046 a 8.963008,8.7969487 0 0 0 0,-0.9742549 0.96345038,0.94560035 0 0 0 -1.197014,-0.8882912 C 29.39481,8.5001181 29.015269,8.5717545 28.635728,8.6577181 28.270784,7.5401905 27.467909,6.6662265 26.066527,7.310954 a 5.4887476,5.3870566 0 0 0 -2.77357,3.667783 1.3575892,1.3324369 0 0 0 -1.634946,1.117528 7.8243849,7.679421 0 0 0 -0.08759,3.610474 3.8100083,3.7394196 0 0 0 0.394139,2.535928 c 0.540116,0.873964 1.780923,0.974255 2.642189,1.361092 3.707824,1.633309 9.765884,-0.616073 7.765994,-5.05753 A 2.9195466,2.8654556 0 0 0 31.00056,10.248046 Z"
     id="path326"
     inkscape:connector-curvature="0"
     style="fill:#a6a8ac;stroke-width:1.44618738" />
  <path
     class="cls-7"
     d="m 23.482728,14.145066 c 1.86851,-1.833892 2.554603,-4.7136748 0.335748,-6.7624756 A 6.6273708,6.5045842 0 0 0 16.519609,6.5659355 c 0,-0.6877079 -3.737019,-1.9198535 -4.831849,-1.432726 -2.0874762,0.8882909 -4.3793202,3.080363 -4.1895497,5.3727275 -1.6787393,0 -3.6932259,2.722183 -4.233342,3.982983 -1.0656345,2.478619 1.2700028,5.616293 3.8683987,6.518912 -2.0728775,3.538838 5.298977,9.799858 11.838761,2.392655 3.269893,0.07164 6.56898,-1.160509 6.510589,-5.00022 a 5.6201272,5.5160021 0 0 0 -1.999889,-4.255201 z"
     id="path328"
     inkscape:connector-curvature="0"
     style="fill:#6e6e71;stroke-width:1.44618738" />
  <g
     id="high"
     transform="matrix(1.4597733,0,0,1.4327278,-58.717106,-7.8329747)">
    <polygon
       class="cls-8"
       points="59.17,29.5 55.11,29.5 55.11,15.15 59.17,17.42 "
       id="polygon330"
       style="fill:#343f4c" />
    <polygon
       class="cls-8"
       points="55.64,20.18 58.64,20.18 58.64,11.98 55.64,13.28 "
       id="polygon332"
       style="fill:#343f4c" />
    <rect
       class="cls-9"
       x="55.290001"
       y="26.040001"
       width="3.7"
       height="0.54000002"
       id="rect334"
       style="fill:#8ec1cd" />
    <rect
       class="cls-9"
       x="55.290001"
       y="25.24"
       width="3.7"
       height="0.54000002"
       id="rect336"
       style="fill:#8ec1cd" />
    <rect
       class="cls-9"
       x="55.290001"
       y="27.73"
       width="3.7"
       height="0.54000002"
       id="rect338"
       style="fill:#8ec1cd" />
    <rect
       class="cls-9"
       x="55.290001"
       y="26.93"
       width="3.7"
       height="0.54000002"
       id="rect340"
       style="fill:#8ec1cd" />
    <rect
       class="cls-9"
       x="55.290001"
       y="24.440001"
       width="3.7"
       height="0.54000002"
       id="rect342"
       style="fill:#8ec1cd" />
    <rect
       class="cls-9"
       x="55.290001"
       y="23.639999"
       width="3.7"
       height="0.54000002"
       id="rect344"
       style="fill:#8ec1cd" />
    <rect
       class="cls-9"
       x="55.290001"
       y="22.84"
       width="3.7"
       height="0.54000002"
       id="rect346"
       style="fill:#8ec1cd" />
    <rect
       class="cls-9"
       x="55.290001"
       y="22.040001"
       width="3.7"
       height="0.54000002"
       id="rect348"
       style="fill:#8ec1cd" />
    <rect
       class="cls-9"
       x="55.290001"
       y="21.24"
       width="3.7"
       height="0.54000002"
       id="rect350"
       style="fill:#8ec1cd" />
    <rect
       class="cls-9"
       x="55.290001"
       y="20.440001"
       width="3.7"
       height="0.54000002"
       id="rect352"
       style="fill:#8ec1cd" />
    <rect
       class="cls-9"
       x="55.290001"
       y="19.639999"
       width="3.7"
       height="0.54000002"
       id="rect354"
       style="fill:#8ec1cd" />
    <rect
       class="cls-9"
       x="55.290001"
       y="18.84"
       width="3.7"
       height="0.54000002"
       id="rect356"
       style="fill:#8ec1cd" />
    <rect
       class="cls-9"
       x="55.290001"
       y="18.040001"
       width="3.7"
       height="0.54000002"
       id="rect358"
       style="fill:#8ec1cd" />
    <rect
       class="cls-9"
       x="55.290001"
       y="17.24"
       width="2.99"
       height="0.54000002"
       id="rect360"
       style="fill:#8ec1cd" />
    <rect
       class="cls-9"
       x="55.290001"
       y="16.440001"
       width="2.99"
       height="0.54000002"
       id="rect362"
       style="fill:#8ec1cd" />
    <rect
       class="cls-9"
       x="55.990002"
       y="13.26"
       width="0.47"
       height="0.47"
       id="rect364"
       style="fill:#8ec1cd" />
    <rect
       class="cls-9"
       x="56.599998"
       y="13.26"
       width="0.47"
       height="0.47"
       id="rect366"
       style="fill:#8ec1cd" />
    <rect
       class="cls-9"
       x="57.209999"
       y="13.26"
       width="0.47"
       height="0.47"
       id="rect368"
       style="fill:#8ec1cd" />
    <rect
       class="cls-9"
       x="57.82"
       y="13.26"
       width="0.47"
       height="0.47"
       id="rect370"
       style="fill:#8ec1cd" />
    <rect
       class="cls-9"
       x="55.990002"
       y="14"
       width="0.47"
       height="0.47"
       id="rect372"
       style="fill:#8ec1cd" />
    <rect
       class="cls-9"
       x="56.599998"
       y="14"
       width="0.47"
       height="0.47"
       id="rect374"
       style="fill:#8ec1cd" />
    <rect
       class="cls-9"
       x="57.209999"
       y="14"
       width="0.47"
       height="0.47"
       id="rect376"
       style="fill:#8ec1cd" />
    <rect
       class="cls-9"
       x="57.82"
       y="14"
       width="0.47"
       height="0.47"
       id="rect378"
       style="fill:#8ec1cd" />
    <rect
       class="cls-9"
       x="55.990002"
       y="14.74"
       width="0.47"
       height="0.47"
       id="rect380"
       style="fill:#8ec1cd" />
    <rect
       class="cls-9"
       x="56.599998"
       y="14.74"
       width="0.47"
       height="0.47"
       id="rect382"
       style="fill:#8ec1cd" />
    <rect
       class="cls-9"
       x="57.209999"
       y="14.74"
       width="0.47"
       height="0.47"
       id="rect384"
       style="fill:#8ec1cd" />
    <rect
       class="cls-9"
       x="57.82"
       y="14.74"
       width="0.47"
       height="0.47"
       id="rect386"
       style="fill:#8ec1cd" />
    <rect
       class="cls-9"
       x="55.990002"
       y="15.48"
       width="0.47"
       height="0.47"
       id="rect388"
       style="fill:#8ec1cd" />
    <rect
       class="cls-9"
       x="56.599998"
       y="15.48"
       width="0.47"
       height="0.47"
       id="rect390"
       style="fill:#8ec1cd" />
    <rect
       class="cls-9"
       x="57.209999"
       y="15.48"
       width="0.47"
       height="0.47"
       id="rect392"
       style="fill:#8ec1cd" />
    <rect
       class="cls-9"
       x="57.82"
       y="15.48"
       width="0.47"
       height="0.47"
       id="rect394"
       style="fill:#8ec1cd" />
    <rect
       class="cls-10"
       x="55.110001"
       y="28.67"
       width="4.0700002"
       height="0.82999998"
       id="rect396"
       style="fill:#e9be65" />
    <rect
       class="cls-11"
       x="49.450001"
       y="18.93"
       width="4.9000001"
       height="5.6700001"
       id="rect398"
       style="fill:#1a8baf" />
    <rect
       class="cls-11"
       x="49.98"
       y="15.32"
       width="3.8399999"
       height="3.9000001"
       id="rect400"
       style="fill:#1a8baf" />
    <rect
       class="cls-11"
       x="50.369999"
       y="12.82"
       width="3.0699999"
       height="6.5300002"
       id="rect402"
       style="fill:#1a8baf" />
    <rect
       class="cls-9"
       x="50.369999"
       y="18.24"
       width="0.75999999"
       height="0.88"
       id="rect404"
       style="fill:#8ec1cd" />
    <rect
       class="cls-9"
       x="51.52"
       y="18.24"
       width="0.75999999"
       height="0.88"
       id="rect406"
       style="fill:#8ec1cd" />
    <rect
       class="cls-9"
       x="52.68"
       y="18.24"
       width="0.75999999"
       height="0.88"
       id="rect408"
       style="fill:#8ec1cd" />
    <rect
       class="cls-9"
       x="50.369999"
       y="16.98"
       width="0.75999999"
       height="0.88"
       id="rect410"
       style="fill:#8ec1cd" />
    <rect
       class="cls-9"
       x="51.52"
       y="16.98"
       width="0.75999999"
       height="0.88"
       id="rect412"
       style="fill:#8ec1cd" />
    <rect
       class="cls-9"
       x="52.68"
       y="16.98"
       width="0.75999999"
       height="0.88"
       id="rect414"
       style="fill:#8ec1cd" />
    <rect
       class="cls-9"
       x="50.369999"
       y="15.72"
       width="0.75999999"
       height="0.88"
       id="rect416"
       style="fill:#8ec1cd" />
    <rect
       class="cls-9"
       x="51.52"
       y="15.72"
       width="0.75999999"
       height="0.88"
       id="rect418"
       style="fill:#8ec1cd" />
    <rect
       class="cls-9"
       x="52.68"
       y="15.72"
       width="0.75999999"
       height="0.88"
       id="rect420"
       style="fill:#8ec1cd" />
    <rect
       class="cls-9"
       x="50.939999"
       y="13.2"
       width="0.75999999"
       height="0.88"
       id="rect422"
       style="fill:#8ec1cd" />
    <rect
       class="cls-9"
       x="52.099998"
       y="13.2"
       width="0.75999999"
       height="0.88"
       id="rect424"
       style="fill:#8ec1cd" />
    <rect
       class="cls-9"
       x="50.939999"
       y="14.46"
       width="0.75999999"
       height="0.88"
       id="rect426"
       style="fill:#8ec1cd" />
    <rect
       class="cls-9"
       x="52.099998"
       y="14.46"
       width="0.75999999"
       height="0.88"
       id="rect428"
       style="fill:#8ec1cd" />
    <rect
       class="cls-9"
       x="49.790001"
       y="19.51"
       width="0.75999999"
       height="0.88"
       id="rect430"
       style="fill:#8ec1cd" />
    <rect
       class="cls-9"
       x="50.939999"
       y="19.51"
       width="0.75999999"
       height="0.88"
       id="rect432"
       style="fill:#8ec1cd" />
    <rect
       class="cls-9"
       x="52.099998"
       y="19.51"
       width="0.75999999"
       height="0.88"
       id="rect434"
       style="fill:#8ec1cd" />
    <rect
       class="cls-9"
       x="53.25"
       y="19.51"
       width="0.75999999"
       height="0.88"
       id="rect436"
       style="fill:#8ec1cd" />
    <rect
       class="cls-9"
       x="49.790001"
       y="20.77"
       width="0.75999999"
       height="0.88"
       id="rect438"
       style="fill:#8ec1cd" />
    <rect
       class="cls-9"
       x="50.939999"
       y="20.77"
       width="0.75999999"
       height="0.88"
       id="rect440"
       style="fill:#8ec1cd" />
    <rect
       class="cls-9"
       x="52.099998"
       y="20.77"
       width="0.75999999"
       height="0.88"
       id="rect442"
       style="fill:#8ec1cd" />
    <rect
       class="cls-9"
       x="53.25"
       y="20.77"
       width="0.75999999"
       height="0.88"
       id="rect444"
       style="fill:#8ec1cd" />
    <rect
       class="cls-9"
       x="49.790001"
       y="22.030001"
       width="0.75999999"
       height="0.88"
       id="rect446"
       style="fill:#8ec1cd" />
    <rect
       class="cls-9"
       x="50.939999"
       y="22.030001"
       width="0.75999999"
       height="0.88"
       id="rect448"
       style="fill:#8ec1cd" />
    <rect
       class="cls-9"
       x="52.099998"
       y="22.030001"
       width="0.75999999"
       height="0.88"
       id="rect450"
       style="fill:#8ec1cd" />
    <rect
       class="cls-9"
       x="53.25"
       y="22.030001"
       width="0.75999999"
       height="0.88"
       id="rect452"
       style="fill:#8ec1cd" />
    <rect
       class="cls-9"
       x="49.790001"
       y="23.290001"
       width="0.75999999"
       height="0.88"
       id="rect454"
       style="fill:#8ec1cd" />
    <rect
       class="cls-9"
       x="50.939999"
       y="23.290001"
       width="0.75999999"
       height="0.88"
       id="rect456"
       style="fill:#8ec1cd" />
    <rect
       class="cls-9"
       x="52.099998"
       y="23.290001"
       width="0.75999999"
       height="0.88"
       id="rect458"
       style="fill:#8ec1cd" />
    <rect
       class="cls-9"
       x="53.25"
       y="23.290001"
       width="0.75999999"
       height="0.88"
       id="rect460"
       style="fill:#8ec1cd" />
    <rect
       class="cls-8"
       x="49.450001"
       y="24.6"
       width="4.9000001"
       height="0.82999998"
       id="rect462"
       style="fill:#343f4c" />
    <rect
       class="cls-8"
       x="47.849998"
       y="19.540001"
       width="4.3000002"
       height="9.0200005"
       id="rect464"
       style="fill:#343f4c" />
    <rect
       class="cls-9"
       x="48.32"
       y="19.98"
       width="0.82999998"
       height="0.95999998"
       id="rect466"
       style="fill:#8ec1cd" />
    <rect
       class="cls-9"
       x="49.580002"
       y="19.98"
       width="0.82999998"
       height="0.95999998"
       id="rect468"
       style="fill:#8ec1cd" />
    <rect
       class="cls-9"
       x="50.849998"
       y="19.98"
       width="0.82999998"
       height="0.95999998"
       id="rect470"
       style="fill:#8ec1cd" />
    <rect
       class="cls-9"
       x="48.32"
       y="21.42"
       width="0.82999998"
       height="0.95999998"
       id="rect472"
       style="fill:#8ec1cd" />
    <rect
       class="cls-9"
       x="49.580002"
       y="21.42"
       width="0.82999998"
       height="0.95999998"
       id="rect474"
       style="fill:#8ec1cd" />
    <rect
       class="cls-9"
       x="50.849998"
       y="21.42"
       width="0.82999998"
       height="0.95999998"
       id="rect476"
       style="fill:#8ec1cd" />
    <rect
       class="cls-9"
       x="48.32"
       y="22.85"
       width="0.82999998"
       height="0.95999998"
       id="rect478"
       style="fill:#8ec1cd" />
    <rect
       class="cls-9"
       x="49.580002"
       y="22.85"
       width="0.82999998"
       height="0.95999998"
       id="rect480"
       style="fill:#8ec1cd" />
    <rect
       class="cls-9"
       x="50.849998"
       y="22.85"
       width="0.82999998"
       height="0.95999998"
       id="rect482"
       style="fill:#8ec1cd" />
    <rect
       class="cls-9"
       x="48.32"
       y="24.290001"
       width="0.82999998"
       height="0.95999998"
       id="rect484"
       style="fill:#8ec1cd" />
    <rect
       class="cls-9"
       x="49.580002"
       y="24.290001"
       width="0.82999998"
       height="0.95999998"
       id="rect486"
       style="fill:#8ec1cd" />
    <rect
       class="cls-9"
       x="50.849998"
       y="24.290001"
       width="0.82999998"
       height="0.95999998"
       id="rect488"
       style="fill:#8ec1cd" />
    <rect
       class="cls-9"
       x="48.32"
       y="25.719999"
       width="0.82999998"
       height="0.95999998"
       id="rect490"
       style="fill:#8ec1cd" />
    <rect
       class="cls-9"
       x="49.580002"
       y="25.719999"
       width="0.82999998"
       height="0.95999998"
       id="rect492"
       style="fill:#8ec1cd" />
    <rect
       class="cls-9"
       x="50.849998"
       y="25.719999"
       width="0.82999998"
       height="0.95999998"
       id="rect494"
       style="fill:#8ec1cd" />
    <rect
       class="cls-9"
       x="48.32"
       y="27.16"
       width="0.82999998"
       height="0.95999998"
       id="rect496"
       style="fill:#8ec1cd" />
    <rect
       class="cls-9"
       x="49.580002"
       y="27.16"
       width="0.82999998"
       height="0.95999998"
       id="rect498"
       style="fill:#8ec1cd" />
    <rect
       class="cls-9"
       x="50.849998"
       y="27.16"
       width="0.82999998"
       height="0.95999998"
       id="rect500"
       style="fill:#8ec1cd" />
    <rect
       class="cls-12"
       x="47.849998"
       y="28.559999"
       width="4.3000002"
       height="0.91000003"
       id="rect502"
       style="fill:#302e30" />
    <rect
       class="cls-13"
       x="51.900002"
       y="21.52"
       width="4.9000001"
       height="7.1500001"
       id="rect504"
       style="fill:#e3ae37" />
    <rect
       class="cls-11"
       x="52.240002"
       y="22.120001"
       width="0.75999999"
       height="0.88"
       id="rect506"
       style="fill:#1a8baf" />
    <rect
       class="cls-11"
       x="53.389999"
       y="22.120001"
       width="0.75999999"
       height="0.88"
       id="rect508"
       style="fill:#1a8baf" />
    <rect
       class="cls-11"
       x="54.529999"
       y="22.120001"
       width="0.75999999"
       height="0.88"
       id="rect510"
       style="fill:#1a8baf" />
    <rect
       class="cls-11"
       x="52.240002"
       y="23.43"
       width="0.75999999"
       height="0.88"
       id="rect512"
       style="fill:#1a8baf" />
    <rect
       class="cls-11"
       x="53.389999"
       y="23.43"
       width="0.75999999"
       height="0.88"
       id="rect514"
       style="fill:#1a8baf" />
    <rect
       class="cls-11"
       x="54.549999"
       y="23.43"
       width="0.75999999"
       height="0.88"
       id="rect516"
       style="fill:#1a8baf" />
    <rect
       class="cls-11"
       x="52.240002"
       y="24.74"
       width="0.75999999"
       height="0.88"
       id="rect518"
       style="fill:#1a8baf" />
    <rect
       class="cls-11"
       x="53.389999"
       y="24.74"
       width="0.75999999"
       height="0.88"
       id="rect520"
       style="fill:#1a8baf" />
    <rect
       class="cls-11"
       x="54.549999"
       y="24.74"
       width="0.75999999"
       height="0.88"
       id="rect522"
       style="fill:#1a8baf" />
    <rect
       class="cls-11"
       x="52.240002"
       y="26.049999"
       width="0.75999999"
       height="0.88"
       id="rect524"
       style="fill:#1a8baf" />
    <rect
       class="cls-11"
       x="53.389999"
       y="26.049999"
       width="0.75999999"
       height="0.88"
       id="rect526"
       style="fill:#1a8baf" />
    <rect
       class="cls-11"
       x="54.549999"
       y="26.049999"
       width="0.75999999"
       height="0.88"
       id="rect528"
       style="fill:#1a8baf" />
    <rect
       class="cls-11"
       x="52.240002"
       y="27.360001"
       width="0.75999999"
       height="0.88"
       id="rect530"
       style="fill:#1a8baf" />
    <rect
       class="cls-11"
       x="53.389999"
       y="27.360001"
       width="0.75999999"
       height="0.88"
       id="rect532"
       style="fill:#1a8baf" />
    <rect
       class="cls-11"
       x="54.549999"
       y="27.360001"
       width="0.75999999"
       height="0.88"
       id="rect534"
       style="fill:#1a8baf" />
    <rect
       class="cls-11"
       x="55.689999"
       y="22.120001"
       width="0.75999999"
       height="0.88"
       id="rect536"
       style="fill:#1a8baf" />
    <rect
       class="cls-11"
       x="55.700001"
       y="23.43"
       width="0.75999999"
       height="0.88"
       id="rect538"
       style="fill:#1a8baf" />
    <rect
       class="cls-11"
       x="55.700001"
       y="24.74"
       width="0.75999999"
       height="0.88"
       id="rect540"
       style="fill:#1a8baf" />
    <rect
       class="cls-11"
       x="55.700001"
       y="26.049999"
       width="0.75999999"
       height="0.88"
       id="rect542"
       style="fill:#1a8baf" />
    <rect
       class="cls-11"
       x="55.700001"
       y="27.360001"
       width="0.75999999"
       height="0.88"
       id="rect544"
       style="fill:#1a8baf" />
    <polygon
       class="cls-14"
       points="57.14,21.91 51.56,21.91 51.81,21.13 56.89,21.13 "
       id="polygon546"
       style="fill:#c23c17" />
    <rect
       class="cls-14"
       x="51.900002"
       y="28.67"
       width="4.9000001"
       height="0.82999998"
       id="rect548"
       style="fill:#c23c17" />
  </g>
  <path
     class="cls-15"
     d="m 32.956657,14.832775 a 2.3210395,2.2780372 0 0 0 -1.780924,-3.395565 6.7149572,6.5905479 0 0 0 -6.452198,2.965747 c -0.6423,-1.805237 -3.561847,-1.146183 -5.094609,0.100291 a 8.7586398,8.5963668 0 0 0 -2.321039,7.364221 c -2.233453,-0.429819 -5.386564,5.730911 -0.978048,5.558983 l 0.131379,0.272219 a 0.20436826,0.20058189 0 0 0 0.32115,0 6.5397844,6.4186206 0 0 0 7.415649,0.644727 2.350235,2.3066918 0 0 0 0.890462,-1.318109 h 0.102184 c 1.766325,0.716364 4.11656,-0.458473 5.488747,-1.432728 a 3.6348355,3.5674922 0 0 0 1.649544,-2.521601 c 2.379431,-0.3152 4.715068,-1.704946 4.934034,-4.183565 0.218966,-2.478619 -2.175062,-4.570402 -4.306331,-4.05462 z"
     id="path551"
     inkscape:connector-curvature="0"
     style="opacity:0.5;fill:#bcbebf;stroke-width:1.44618738" />
  <path
     class="cls-16"
     d="m 21.789391,20.520704 c 0.992646,-1.131855 2.087476,-2.378328 1.197014,-3.83971 a 3.445065,3.3812376 0 0 0 -3.255294,-1.303782 3.4742604,3.4098922 0 0 0 -0.963451,-3.682111 3.226099,3.1663285 0 0 0 -4.028974,0.487128 c -1.372187,-2.5502559 -6.729555,0.716363 -6.9193256,3.639128 -3.9413873,0 -3.2552938,6.218039 -0.2919546,7.994621 a 3.386674,3.3239285 0 0 0 -0.5547139,3.252292 3.7516174,3.6821105 0 0 0 4.6712741,2.163419 1.4597733,1.4327278 0 0 0 1.284601,1.174837 2.6275919,2.5789101 0 0 0 2.32104,0.415491 3.7662151,3.6964377 0 0 0 2.919546,-0.386836 3.226099,3.1663285 0 0 0 1.941499,-2.636219 4.919436,4.8282927 0 0 0 3.269892,-4.21222 3.5472491,3.4815286 0 0 0 -1.591153,-3.066038 z"
     id="path553"
     inkscape:connector-curvature="0"
     style="opacity:0.6;fill:#808285;stroke-width:1.44618738" />
  <polygon
     class="cls-17"
     points="93.99,15.71 93.64,11.03 93.52,11.03 93.44,12.32 92.42,11.1 92.41,11.11 93.42,12.72 92.98,20.21 89.82,16.05 89.78,16.09 90.82,17.93 89.3,17.88 89.3,17.9 90.98,18.21 92.9,21.63 92.6,26.8 94.81,26.78 94.04,16.38 96.06,13.64 96.04,13.62 "
     id="polygon555"
     style="fill:#48240d"
     transform="translate(0,4.0600097)" />
  <polygon
     class="cls-17"
     points="96.75,17.91 97.28,10.95 97.41,10.95 97.55,13.42 98.56,12.2 98.58,12.21 97.57,13.82 97.94,20.13 101.1,15.97 101.14,16 100.1,17.85 101.62,17.8 101.63,17.82 99.95,18.13 98.02,21.55 98.33,26.72 96.12,26.7 96.7,18.58 94.67,15.83 94.7,15.81 "
     id="polygon557"
     style="fill:#48240d"
     transform="translate(0,4.0600097)" />
  <path
     class="cls-17"
     d="m 96.55,27.430007 -1.33,-1.37 v 0 l 1.21,1.64 c 0.03,-0.05 0.07,-0.16 0.12,-0.27 z"
     id="path559"
     inkscape:connector-curvature="0"
     style="fill:#48240d" />
  <path
     class="cls-17"
     d="m 97.61,21.060007 0.62,-1.11 v 0 l -0.81,1.06 a 0.75,0.75 0 0 0 0.19,0.05 z"
     id="path561"
     inkscape:connector-curvature="0"
     style="fill:#48240d" />
  <path
     class="cls-17"
     d="m 97.69,17.560007 1.36,-0.25 v 0 h -1.29 a 0.6,0.6 0 0 0 -0.07,0.25 z"
     id="path563"
     inkscape:connector-curvature="0"
     style="fill:#48240d" />
  <polygon
     class="cls-17"
     points="89.8,17.91 89.26,10.95 89.14,10.95 89,13.42 87.98,12.2 87.97,12.21 88.97,13.82 88.6,20.13 85.44,15.97 85.4,16 86.44,17.85 84.92,17.8 84.92,17.82 86.6,18.13 88.52,21.55 88.22,26.72 90.43,26.7 89.84,18.58 91.87,15.83 91.85,15.81 "
     id="polygon565"
     style="fill:#48240d"
     transform="translate(0,4.0600097)" />
  <path
     class="cls-17"
     d="m 90,27.430007 1.32,-1.37 v 0 l -1.21,1.64 c -0.02,-0.05 -0.11,-0.16 -0.11,-0.27 z"
     id="path567"
     inkscape:connector-curvature="0"
     style="fill:#48240d" />
  <path
     class="cls-17"
     d="m 88.93,21.060007 -0.62,-1.11 v 0 l 0.81,1.06 a 0.75,0.75 0 0 1 -0.19,0.05 z"
     id="path569"
     inkscape:connector-curvature="0"
     style="fill:#48240d" />
  <path
     class="cls-17"
     d="m 88.85,17.560007 -1.36,-0.25 v 0 h 1.29 a 0.6,0.6 0 0 1 0.07,0.25 z"
     id="path571"
     inkscape:connector-curvature="0"
     style="fill:#48240d" />
  <path
     class="cls-18"
     d="m 102.66,31.620007 a 28.63,28.63 0 0 0 -9.73,-1.82 29.19,29.19 0 0 0 -10,1.82 z"
     id="path573"
     inkscape:connector-curvature="0"
     style="fill:#b2a321" />
  <path
     class="cls-19"
     d="m 102.66,31.620007 a 28.63,28.63 0 0 0 -9.73,-1.82 h -0.07 a 35.07,35.07 0 0 1 6.14,1.82 z"
     id="path575"
     inkscape:connector-curvature="0"
     style="fill:#988b26" />
  <path
     class="cls-20"
     d="m 102.79,22.520007 a 0.11,0.11 0 0 0 0.08,-0.17 c -0.27,-0.39 -0.81,-0.82 -1.28,-0.59 a 0.13,0.13 0 0 0 -0.08,0.2 c 0.26,0.59 0.74,0.59 1.28,0.56 z"
     id="path577"
     inkscape:connector-curvature="0"
     style="fill:#e7b737" />
  <path
     class="cls-20"
     d="m 87,16.350007 a 0.09,0.09 0 0 0 0,0.15 c 0.29,0.24 0.79,0.45 1.11,0.16 a 0.11,0.11 0 0 0 0,-0.17 c -0.32,-0.43 -0.69,-0.28 -1.11,-0.14 z"
     id="path579"
     inkscape:connector-curvature="0"
     style="fill:#e7b737" />
</svg>
