<?xml version="1.0" encoding="UTF-8" standalone="no"?>
<svg
   xmlns:dc="http://purl.org/dc/elements/1.1/"
   xmlns:cc="http://creativecommons.org/ns#"
   xmlns:rdf="http://www.w3.org/1999/02/22-rdf-syntax-ns#"
   xmlns:svg="http://www.w3.org/2000/svg"
   xmlns="http://www.w3.org/2000/svg"
   xmlns:sodipodi="http://sodipodi.sourceforge.net/DTD/sodipodi-0.dtd"
   xmlns:inkscape="http://www.inkscape.org/namespaces/inkscape"
   id="Capa_1"
   data-name="Capa 1"
   viewBox="0 0 40 40"
   version="1.1"
   sodipodi:docname="finanzas.svg"
   width="40"
   height="40"
   inkscape:version="0.92.4 (5da689c313, 2019-01-14)">
  <metadata
     id="metadata80">
    <rdf:RDF>
      <cc:Work
         rdf:about="">
        <dc:format>image/svg+xml</dc:format>
        <dc:type
           rdf:resource="http://purl.org/dc/dcmitype/StillImage" />
        <dc:title>LOGO</dc:title>
      </cc:Work>
    </rdf:RDF>
  </metadata>
  <sodipodi:namedview
     pagecolor="#ffffff"
     bordercolor="#666666"
     borderopacity="1"
     objecttolerance="10"
     gridtolerance="10"
     guidetolerance="10"
     inkscape:pageopacity="0"
     inkscape:pageshadow="2"
     inkscape:window-width="1366"
     inkscape:window-height="705"
     id="namedview78"
     showgrid="false"
     inkscape:zoom="5.9536481"
     inkscape:cx="-19.039887"
     inkscape:cy="7.6749661"
     inkscape:window-x="-8"
     inkscape:window-y="-8"
     inkscape:window-maximized="1"
     inkscape:current-layer="Capa_1" />
  <defs
     id="defs48">
    <style
       id="style46">.cls-1{fill:#2b4348;}.cls-2{fill:#ae593c;}.cls-3{fill:#e1c347;}.cls-4{fill:#11766f;}.cls-5{fill:#a09d4f;}</style>
  </defs>
  <title
     id="title50">LOGO</title>
  <g
     id="_Grupo_"
     data-name="&lt;Grupo&gt;"
     transform="matrix(1.6789734,0,0,1.7079145,-1.5698813,-6.2724286)">
    <g
       id="_Grupo_2"
       data-name="&lt;Grupo&gt;">
      <circle
         id="_Trazado_"
         data-name="&lt;Trazado&gt;"
         class="cls-1"
         cx="13.01"
         cy="15.47"
         r="11.44"
         style="fill:#2b4348" />
    </g>
    <g
       id="_Grupo_3"
       data-name="&lt;Grupo&gt;">
      <g
         id="_Grupo_4"
         data-name="&lt;Grupo&gt;">
        <g
           id="_Grupo_5"
           data-name="&lt;Grupo&gt;">
          <circle
             id="_Trazado_2"
             data-name="&lt;Trazado&gt;"
             class="cls-2"
             cx="13.01"
             cy="10.53"
             r="2.73"
             style="fill:#ae593c" />
        </g>
        <g
           id="_Grupo_6"
           data-name="&lt;Grupo&gt;">
          <circle
             id="_Trazado_3"
             data-name="&lt;Trazado&gt;"
             class="cls-3"
             cx="12.67"
             cy="10.53"
             r="2.73"
             style="fill:#e1c347" />
        </g>
        <g
           id="_Grupo_7"
           data-name="&lt;Grupo&gt;">
          <g
             id="_Grupo_8"
             data-name="&lt;Grupo&gt;">
            <path
               id="_Trazado_compuesto_"
               data-name="&lt;Trazado compuesto&gt;"
               class="cls-4"
               d="M 12.71,12.09 V 11.7 a 1.1,1.1 0 0 1 -0.58,-0.17 l 0.09,-0.25 a 1,1 0 0 0 0.55,0.16 c 0.27,0 0.45,-0.16 0.45,-0.37 0,-0.21 -0.15,-0.34 -0.43,-0.45 -0.28,-0.11 -0.63,-0.33 -0.63,-0.66 A 0.62,0.62 0 0 1 12.73,9.35 V 9 H 13 V 9.37 A 1,1 0 0 1 13.49,9.5 L 13.4,9.75 A 0.92,0.92 0 0 0 12.92,9.62 c -0.29,0 -0.4,0.17 -0.4,0.33 0,0.16 0.14,0.3 0.47,0.43 0.33,0.13 0.59,0.36 0.59,0.69 a 0.66,0.66 0 0 1 -0.6,0.64 v 0.39 z"
               inkscape:connector-curvature="0"
               style="fill:#11766f" />
          </g>
        </g>
      </g>
      <g
         id="_Grupo_9"
         data-name="&lt;Grupo&gt;">
        <path
           id="_Trazado_4"
           data-name="&lt;Trazado&gt;"
           class="cls-3"
           d="M 11.1,7.59 Q 10.85,7.19 10.57,6.82 c -0.09,-0.12 -0.28,0 -0.19,0.13 0.09,0.13 0.36,0.5 0.53,0.77 0.17,0.27 0.27,0 0.19,-0.13 z"
           inkscape:connector-curvature="0"
           style="fill:#e1c347" />
      </g>
      <g
         id="_Grupo_10"
         data-name="&lt;Grupo&gt;">
        <path
           id="_Trazado_5"
           data-name="&lt;Trazado&gt;"
           class="cls-3"
           d="m 12.39,7.35 a 5.65,5.65 0 0 1 -0.1,-1 c 0,-0.15 -0.24,-0.14 -0.23,0 a 6,6 0 0 0 0.11,1.05 c 0.03,0.18 0.25,0.1 0.22,-0.05 z"
           inkscape:connector-curvature="0"
           style="fill:#e1c347" />
      </g>
      <g
         id="_Grupo_11"
         data-name="&lt;Grupo&gt;">
        <path
           id="_Trazado_6"
           data-name="&lt;Trazado&gt;"
           class="cls-3"
           d="m 13.57,6.44 a 3,3 0 0 0 -0.34,0.86 0.12,0.12 0 0 0 0.23,0 2.8,2.8 0 0 1 0.32,-0.81 C 13.85,6.42 13.64,6.31 13.57,6.44 Z"
           inkscape:connector-curvature="0"
           style="fill:#e1c347" />
      </g>
      <g
         id="_Grupo_12"
         data-name="&lt;Grupo&gt;">
        <path
           id="_Trazado_7"
           data-name="&lt;Trazado&gt;"
           class="cls-3"
           d="m 15.22,6.77 a 4.21,4.21 0 0 0 -0.65,0.85 c -0.08,0.13 0.13,0.24 0.21,0.11 a 4,4 0 0 1 0.61,-0.8 C 15.5,6.82 15.32,6.66 15.22,6.77 Z"
           inkscape:connector-curvature="0"
           style="fill:#e1c347" />
      </g>
    </g>
    <g
       id="_Grupo_13"
       data-name="&lt;Grupo&gt;">
      <g
         id="_Grupo_14"
         data-name="&lt;Grupo&gt;">
        <polygon
           id="_Trazado_8"
           data-name="&lt;Trazado&gt;"
           class="cls-5"
           points="20.11,9.32 18.07,9.98 18.65,10.57 14.39,14.72 10.75,13.87 5.64,19.82 6.16,20.23 10.98,14.49 14.58,15.41 18.96,10.87 19.48,11.4 "
           style="fill:#a09d4f" />
      </g>
      <g
         id="_Grupo_15"
         data-name="&lt;Grupo&gt;">
        <path
           id="_Trazado_9"
           data-name="&lt;Trazado&gt;"
           class="cls-4"
           d="M 21.42,25.91 V 13.31 A 0.32,0.32 0 0 0 21.11,13 H 18 a 0.32,0.32 0 0 0 -0.31,0.31 v 12.6 h -0.4 V 16.84 A 0.32,0.32 0 0 0 16.98,16.53 H 14 a 0.32,0.32 0 0 0 -0.31,0.31 v 9.07 h -0.4 V 19.35 A 0.32,0.32 0 0 0 12.98,19.04 H 9.86 a 0.32,0.32 0 0 0 -0.31,0.31 v 6.56 H 9.15 V 22.33 A 0.32,0.32 0 0 0 8.83,22 H 5.77 a 0.32,0.32 0 0 0 -0.31,0.31 v 3.58 H 4.25 v 1.21 h 18.43 v -1.19 z"
           inkscape:connector-curvature="0"
           style="fill:#11766f" />
      </g>
    </g>
  </g>
</svg>
