<?xml version="1.0" encoding="UTF-8" standalone="no"?>
<svg
   xmlns:dc="http://purl.org/dc/elements/1.1/"
   xmlns:cc="http://creativecommons.org/ns#"
   xmlns:rdf="http://www.w3.org/1999/02/22-rdf-syntax-ns#"
   xmlns:svg="http://www.w3.org/2000/svg"
   xmlns="http://www.w3.org/2000/svg"
   xmlns:sodipodi="http://sodipodi.sourceforge.net/DTD/sodipodi-0.dtd"
   xmlns:inkscape="http://www.inkscape.org/namespaces/inkscape"
   id="Capa_1"
   data-name="Capa 1"
   viewBox="0 0 40 40.000001"
   version="1.1"
   sodipodi:docname="mundo.svg"
   width="40"
   height="40"
   inkscape:version="0.92.4 (5da689c313, 2019-01-14)">
  <metadata
     id="metadata584">
    <rdf:RDF>
      <cc:Work
         rdf:about="">
        <dc:format>image/svg+xml</dc:format>
        <dc:type
           rdf:resource="http://purl.org/dc/dcmitype/StillImage" />
        <dc:title>LOGROS</dc:title>
      </cc:Work>
    </rdf:RDF>
  </metadata>
  <sodipodi:namedview
     pagecolor="#ffffff"
     bordercolor="#666666"
     borderopacity="1"
     objecttolerance="10"
     gridtolerance="10"
     guidetolerance="10"
     inkscape:pageopacity="0"
     inkscape:pageshadow="2"
     inkscape:window-width="1366"
     inkscape:window-height="705"
     id="namedview582"
     showgrid="false"
     inkscape:zoom="5.6064815"
     inkscape:cx="61.713681"
     inkscape:cy="20.371914"
     inkscape:window-x="-8"
     inkscape:window-y="-8"
     inkscape:window-maximized="1"
     inkscape:current-layer="Capa_1" />
  <defs
     id="defs300">
    <style
       id="style298">.cls-1{fill:#fff;}.cls-2{fill:#2a8ec8;}.cls-3{fill:#f9f0dd;}.cls-4{fill:#1a4968;}.cls-5{fill:#c8533a;}.cls-6{fill:#a6a8ac;}.cls-7{fill:#6e6e71;}.cls-8{fill:#343f4c;}.cls-9{fill:#8ec1cd;}.cls-10{fill:#e9be65;}.cls-11{fill:#1a8baf;}.cls-12{fill:#302e30;}.cls-13{fill:#e3ae37;}.cls-14{fill:#c23c17;}.cls-15{fill:#bcbebf;opacity:0.5;}.cls-16{fill:#808285;opacity:0.6;}.cls-17{fill:#48240d;}.cls-18{fill:#b2a321;}.cls-19{fill:#988b26;}.cls-20{fill:#e7b737;}</style>
  </defs>
  <title
     id="title302">LOGROS</title>
  <ellipse
     class="cls-1"
     cx="20.165855"
     cy="19.652523"
     id="circle304"
     style="fill:#ffffff;stroke-width:1.48657274"
     rx="19.967869"
     ry="19.254408" />
  <ellipse
     class="cls-2"
     cx="-18.924225"
     cy="20.821348"
     transform="matrix(0.03058358,-0.99953221,0.99959553,0.0284389,0,0)"
     id="circle306"
     style="fill:#2a8ec8;stroke-width:1.48657453"
     rx="13.415756"
     ry="13.911986" />
  <path
     class="cls-3"
     d="m 15.094409,31.520471 c 0,-0.277357 -0.302773,-0.131379 -0.393604,-0.335747 -0.09083,-0.204369 0.166525,-0.145977 0.227079,-0.233564 v -0.379541 c 0,0 -0.136248,0 -0.121109,-0.08759 0.01514,-0.08759 0.121109,0 0.151386,0.07299 0.03028,0.07298 0,-0.102185 -0.121108,-0.160576 -0.12111,-0.05839 -0.242219,-0.218966 -0.166525,-0.277357 0.07569,-0.05839 0.469297,0.26276 0.469297,0 0,-0.262759 -0.136247,-0.277356 -0.121109,-0.364943 0.01514,-0.08759 0.756932,0.102184 0.772071,-0.160575 0.01514,-0.262759 0.181664,-0.291955 0,-0.335748 l -0.348189,-0.379545 a 3.179115,3.0655239 0 0 0 0.484437,0.116783 c 0.196803,0 0.635823,-0.364943 0.544991,-0.598507 0,0 0,-0.364944 0.151386,-0.277357 0.151387,0.08759 -0.151386,0.248162 0,0.248162 0.151387,0 0.363328,-0.861267 0.348189,-0.934256 -0.136248,-0.437932 0.439021,-0.408736 0.529853,-0.525518 0.09083,-0.116782 0.181663,-0.189771 0.484436,-0.175173 0.302773,0.0146 0.454159,-0.540116 0.454159,-0.686093 a 6.736696,6.4959911 0 0 1 0.105971,-1.22621 c 0.272496,-0.350346 1.135398,-1.153221 0.590407,-1.605751 0,0 -0.22708,0 -0.287634,0 -0.06056,0 -0.287634,-0.379541 -0.529853,-0.437931 -0.242218,-0.05839 -0.696377,0 -0.802348,0 -0.10597,0 0,-0.277357 0,-0.291955 v 0 c 0,-0.467128 -0.650961,0 -0.756932,0.116782 0,-0.13138 0.363327,-0.58391 0,-0.510921 0,0 -0.121109,-0.788278 -0.287634,-0.788278 -0.166525,0 -0.166525,-0.233564 -0.287634,-0.262759 -0.12111,-0.02919 -0.272496,-0.08759 -0.423882,-0.102184 -0.151387,-0.0146 -0.45416,-0.204368 -0.514715,-0.13138 0.105971,-0.394138 -0.272495,-0.277357 -0.408742,-0.423334 -0.136248,-0.145977 0,-0.364943 -0.105971,-0.233563 -0.105971,0.131379 -0.151387,0 -0.181664,-0.13138 -0.03028,-0.13138 0.196802,0 0.181664,0 -0.01514,0 -1.044567,0.160575 -1.180814,0 0.10597,-0.102184 -0.499575,-0.379541 -0.302773,-0.13138 a 0.22707964,0.21896599 0 0 1 -0.211941,0 v 0.116782 c 0,-0.07298 0.181664,-0.394139 0,-0.32115 -0.181664,0.07299 -0.287634,0.189771 -0.454159,0.189771 -0.166526,0 -0.484437,0.671495 -0.529853,0.656897 -0.04541,-0.0146 -0.121109,-0.306552 -0.348189,-0.306552 -0.227079,0 -0.287634,0.116782 -0.423882,0.116782 -0.136247,0 -0.560129,-0.51092 -0.363327,-0.686093 0.196802,-0.175173 0.196802,-0.58391 0,-0.613105 -0.196802,-0.02919 -0.181664,-0.160575 -0.363328,-0.08759 a 0.89317994,0.86126623 0 0 1 -0.423882,0 c 0.151387,-0.160576 0.166526,-0.394139 0.302773,-0.554715 0.136248,-0.160574 0.287635,-0.481724 0,-0.540116 a 0.74179349,0.71528891 0 0 0 -0.7569318,0.540116 c 0,0 -0.5449911,0 -0.5904071,0.07299 A 3.4364719,3.3136853 0 0 1 8.7815952,18.032166 c -0.1362477,-0.189771 0,-0.408736 0,-0.627702 a 1.5138642,1.4597733 0 0 1 0.8326254,-1.182417 2.0437168,1.9706939 0 0 0 0.5147134,0 c 0,0.175173 0.348189,0.13138 0.287635,0 -0.06056,-0.131379 0.07569,0.116782 0.121109,0.116782 0.04542,0 0,-0.13138 0,-0.145977 a 1.9377463,1.8685098 0 0 0 0.348189,-0.204368 c 0,0 0,0.08759 0,0.102184 0,0.0146 0.272495,0 0.302772,0 0.03028,0 0,0.218966 0.287635,0.102184 0.287634,-0.116782 0.196802,0.481725 0.166525,0.437932 -0.03028,-0.04379 0,0 0,0 a 0.93859586,0.90505946 0 0 0 0,0.233564 c 0,0 0,0 0,0 0,0 0.151386,0.379541 0.242218,0.277357 a 0.93859586,0.90505946 0 0 0 0.166525,-0.715289 c -0.136248,-0.45253 0.514713,-1.09483 0.984012,-1.124026 0,0 0.378466,-0.277357 0.211941,-0.291954 0.151386,-0.175173 0,-0.13138 0,-0.218966 0,-0.08759 0.181663,-0.437933 0.257357,-0.437933 0.07569,0 -0.196803,0.335749 -0.09083,0.321151 0.10597,-0.0146 -0.09083,0.116782 0,0.145977 0.09083,0.02919 0.257357,-0.408736 0.257357,-0.437932 0,-0.0292 0.07569,0.116782 0,0.116782 -0.07569,0 0.242218,-0.32115 0.287634,-0.379541 0.04541,-0.05839 0.408744,0 0.348189,0 v 0 c 0.09083,0 0.166525,0 0.196802,-0.102184 h 0.121109 v 0 c 0,0.07299 0.348189,-0.175173 0.196803,-0.189771 a 0.34818878,0.33574786 0 0 1 -0.09083,0.08759 c 0,0 0,-0.08759 0,-0.116783 0,-0.02919 0.393605,-0.291954 0.544991,-0.394138 0.151387,-0.102184 -0.10597,0.102184 0,0.102184 a 1.3170619,1.2700027 0 0 0 0.544992,-0.262759 c 0,0.102184 0.21194,0 0.287634,-0.08759 0.07569,-0.08759 -0.121109,0.07298 -0.121109,0.07298 0,0 0.151386,0 0.166525,0 a 0.93859586,0.90505946 0 0 1 -0.378467,0.145982 c -0.136248,0 -0.09083,0.350345 0,0.218966 0.09083,-0.13138 0.166525,-0.175173 0.242219,-0.218966 0.07569,-0.04379 0,0 0,0 0,0 0.832625,-0.364944 0.711516,-0.379542 -0.121109,-0.0146 0.136248,-0.131379 0,-0.131379 -0.136248,0 -0.196803,0.204368 -0.257357,0.262759 v 0 a 0.71151621,0.68609344 0 0 1 -0.317911,-0.102184 c -0.151387,-0.18977 0.09083,-0.277357 0,-0.335748 h -0.33305 c 0.07569,0 0.363327,0 0.423881,-0.102184 0.22708,-0.437932 -1.211091,0.277357 -1.211091,0.277357 a 9.7795628,9.4301353 0 0 1 0.89318,-0.540116 c 0.302772,-0.145978 1.150537,0.204368 1.362477,-0.175173 a 3.2093923,3.0947194 0 0 0 0.499576,-0.145977 0.25735692,0.24816146 0 0 0 0,-0.45253 c 0,0 0.10597,0 0.121109,0 l -0.09083,-0.131379 a 0.80234806,0.77367984 0 0 1 -0.272496,0 c -0.09083,0 0,-0.175173 -0.121109,-0.233564 -0.121108,-0.05839 0.166525,-0.08759 0.151387,-0.145978 -0.01514,-0.05839 0,0 0,0 a 4.1934041,4.043572 0 0 0 -0.07569,-0.627702 c 0,0 -0.650962,0.364943 -0.681239,0.408736 -0.03028,0.04379 -0.257357,-0.467127 0,-0.51092 h -0.22708 c 0,0 0.09083,0 0.09083,0 0,0 -1.089982,-0.233563 -0.878041,0 a 1.4230324,1.3721869 0 0 0 -0.333051,0.379541 c -0.07569,0.175172 -0.181663,0 0,0.262759 0.181664,0.26276 -0.33305,0.423334 -0.469297,0.481726 -0.136248,0.05839 -0.302773,0 -0.34819,0.306552 -0.04541,0.306552 -0.136247,0.262759 -0.227079,0.408736 0,-0.116782 -0.151386,0 -0.22708,0 a 0.1059705,0.10218413 0 0 0 -0.07569,-0.145977 c 0,0 0.484437,-0.875864 -0.211941,-0.583909 0.136248,-0.175173 -0.696377,-0.364944 -0.817486,-0.364944 a 1.1808141,1.1386231 0 0 0 0.136248,-0.306552 c -0.105971,-0.102184 -0.317911,0 0,-0.233564 0.317911,-0.233564 0.33305,-0.335748 0.469298,-0.306552 0.136248,0.02919 0.317911,-0.160576 0.363328,-0.145978 0.43902,0.116782 0,-0.2043676 -0.105971,-0.233563 0.211941,0 0.363327,0.1605746 0.529852,0 0,0.18977 0.635824,-0.1459777 0.56013,-0.1897708 A 1.1202596,1.0802322 0 0 1 15.3215,9.5508792 c -0.181664,0.1313792 -0.348189,0.3065523 -0.514715,0.4087361 0.317913,0 0,0 0.166526,0.087586 0.166525,0.08759 0.408743,-0.3503447 0.469298,-0.087586 0.272496,0.1021837 0.423882,0 0.181664,-0.087586 0.136247,0 -0.211941,-0.3503462 -0.181664,-0.3503462 0.03028,0 0,0.1167823 -0.07569,0.13138 a 0.15138642,0.14597733 0 0 0 0,-0.1897707 c 0.09083,0 0.287635,0.1605754 0.302773,0.1459777 0.01513,-0.0146 0,-0.1021847 0,-0.1167824 0,-0.0146 0.09083,0 0.10597,0 0,0.1167824 0.544991,-0.1459768 0.469298,-0.2043676 -0.07569,-0.058392 0.166526,-0.2189661 0.136248,-0.3065531 -0.03028,-0.087586 0.529853,0 0.575268,-0.1459769 a 0.28763421,0.27735692 0 0 0 0.12111,0.072984 c 0,0 0,0 0,0 h 0.181663 v 0 c 0,0 -0.181663,0 -0.166525,0 0.01513,0 0.136248,0 0.166525,0 0.03028,0 0,0 0.105971,0 0.105971,0 0,0 0,0.087587 0,0.087586 -0.12111,0 -0.105971,0 0.01513,0 0.257357,0.087586 0.151386,0 v 0 c 0,0 0.166525,0.2043676 0,0.2189653 -0.166525,0.0146 -0.378465,0.13138 -0.378465,0.2627592 0,0.13138 -0.696378,-0.1021838 -0.756932,0.1459777 -0.06056,0.2481615 0.575268,0 0.560129,0 -0.01513,0 0.07569,0.1751722 0.105971,0.2189662 A 1.2413687,1.1970141 0 0 0 17.66798,10.19318 c 0.151386,0 -0.166525,-0.3357479 -0.181664,-0.3503455 a 0.77207077,0.74448438 0 0 1 0.363327,0.2043675 c 0,0.218966 0.151387,-0.1897699 0.136248,-0.1897699 v 0 c 0.07569,0.1751719 0,0 0,-0.13138 0,-0.1313792 0,0 0,0 0,0 -0.211941,-0.3065523 -0.242219,-0.2919546 0,-0.2919546 0.469299,0.364943 0.590408,0 0.09083,0.087586 0.33305,-0.1021838 0.408743,-0.1605745 v 0 L 18.046446,8.9231768 c 0,0 0.317911,0 0.317911,-0.1021838 h -0.136248 v 0 c 0,0 0.09083,0 0.121109,0 0.03028,0 -0.136248,-0.072984 -0.181664,0 -0.04541,0.072984 0.10597,0 0.09083,-0.087586 -0.01514,-0.087587 -0.484436,-0.2335639 -0.544992,-0.1021847 0,-0.1897708 -0.166525,-0.1459769 -0.21194,-0.2481615 -0.04541,-0.1021838 0,0 -0.317912,-0.1897699 -0.317911,-0.1897708 -0.07569,0.1167815 -0.07569,0.1167815 0,0 0.272495,0 0.287634,0 0.01514,0 -0.484436,0.087586 -0.484436,0.1021838 0,0.0146 0.166525,-0.1459769 0.181663,-0.2335639 0.01513,-0.087586 -0.832625,0 -0.878041,0.2481615 -0.04541,0.2481616 0.136248,0 0.121109,0 -0.484436,0 0.317911,-0.3503453 0.317911,-0.3503453 0,0 -1.029427,0.1459777 -1.044566,0.3795416 h 0.287634 c -0.89318,0.072984 0.439021,0.1897699 0.423882,0.1897699 -0.01514,0 -0.242218,0 -0.287634,0 -0.04541,0 -0.105971,0.1459777 -0.105971,0.1459777 A 2.2253805,2.1458667 0 0 1 15.54857,8.9523722 c 0,0 0.09083,0 0,0 -0.09083,0 -0.211941,0.1167823 -0.105971,0.1167823 -0.196802,0.1605746 -0.287634,-0.1021846 -0.121109,-0.087587 0.166526,0.0146 0,-0.1459768 0,-0.2043676 0,-0.058392 -0.272495,0 -0.272495,0 0.287634,-0.1751731 0.10597,-0.087587 0.121108,-0.3649438 0.166526,0 0.802349,-0.1313792 0.878042,-0.2773569 0,-0.2043676 -0.802348,0 -0.862902,0.1021846 -0.06056,0.1021838 -0.469299,0.3941384 -0.439021,0.3941384 0.03028,0 -0.166526,0 -0.181664,0 -0.01514,0 0.22708,0.13138 0.242218,0.1459777 0.01514,0.0146 -0.242218,0 -0.242218,0.087586 h 0.09083 c 0,0 -0.469298,0.1605755 -0.408744,0.2043685 v 0 c 0,0 0.166525,-0.13138 0.166525,-0.13138 0,0 -0.136248,0 -0.166525,0 -0.03028,0 0.408744,-0.1021838 0.439021,-0.1459769 0.03028,-0.043792 -0.696377,0 -0.6661,0 0.03028,0 0.136248,0 0.166525,0 a 1.059705,1.0218413 0 0 1 -0.968874,0.072984 c 0.166525,0 0,0 0,-0.1021838 0,-0.1021847 -0.469297,0 -0.499574,0 -0.03028,0 0.09083,0 0.10597,0.072993 0.01514,0.072984 -0.756932,0.2627592 -0.756932,0.2627592 v 0 A 0.1059705,0.10218413 0 0 0 11.96071,8.9523764 h 0.121109 -0.242218 A 13.897274,13.400719 0 0 0 6.7378785,16.601589 v 0 c 0,0 -0.1362478,0.131379 0,0.204368 a 0.3179115,0.30655239 0 0 1 0.166525,0.175172 1.907469,1.8393143 0 0 0 0.211941,0.350347 c 0.1665251,0.277356 0,0.394138 0,0.583909 0,0.18977 0.8326254,0.671495 1.1202596,0.77368 0.2876342,0.102183 0.3179115,0 0.6206843,0 0.302773,0 0.4238821,0.394138 0.4995753,0.394138 0.075694,0 0.5147138,0.189771 0.7266553,0.204368 0.211941,0.0146 0.227079,0.77368 0.363327,0.77368 v -0.102184 c 0.181664,0 0.181664,0.437932 0.348189,0.45253 0.166525,0.0146 0.121109,-0.189771 0.227079,0 0.105971,0.189771 0,0 -0.09083,0 -0.09083,0 0,0.08759 0,0.08759 0,0 0.529852,0 0.242218,-0.18977 0.07569,0 0.257357,-0.233564 0.317911,-0.102185 a 2.6341238,2.5400056 0 0 1 0.196803,0.45253 0.84776401,0.81747304 0 0 0 0,0.554714 c 0,0.102184 -0.484437,0.350345 -0.317912,0.467128 -0.272495,0.145977 -0.151386,0.204367 -0.302773,0.37954 -0.151386,0.175174 0,0.540117 0.09083,0.350346 0,0.291955 -0.317911,0.321151 -0.166525,0.598507 0.151387,0.277357 -0.211941,-0.13138 0.181664,0.277357 a 2.2102418,2.131269 0 0 1 0.196802,0.335748 3.391056,3.2698922 0 0 0 0.242218,0.554714 c 0.257357,0.379541 0.348189,0.729887 0.756932,0.992646 0.408744,0.262759 0.711517,0.364943 0.711517,0.832071 0,0.467127 0,0.554713 0,0.83207 a 5.7981002,5.5909317 0 0 0 0,0.861266 3.0277286,2.9195466 0 0 0 0.151386,0.890462 3.1488377,3.0363284 0 0 1 0,0.729887 c 0,0 -0.07569,0 -0.09083,0 -0.01514,0 0.287634,0.890461 0.317911,0.905059 0.03028,0.0146 0,0 0,0 0,0 0.166526,0.496323 0.181665,0.277358 0,0 -0.105971,-0.321151 0,-0.291956 0.10597,0.02919 0.181663,0.525519 0.121108,0.598508 -0.06056,0.07298 0,-0.13138 -0.136247,-0.145978 -0.136248,-0.0146 0,0.394139 0,0.540116 v 0 0 c 0,0 0.227079,0 0.227079,0 0,0 0.09083,0.175173 0,0.218966 h -0.10597 q 0.605545,0.306553 1.241369,0.554714 c 0,0 0.10597,-0.598507 0.10597,-0.45253 z m 2.179965,-19.998893 z m -0.257357,0.08759 a 0.37846607,0.36494332 0 0 1 0.196803,0 c 0,0 -0.196803,0 -0.196803,0 z m -3.027729,2.306442 z m 2.452461,-4.1603543 c -0.121109,0 0,0 0,0 z m -0.56013,-1.4597729 z m -1.271646,0.45253 v 0 a 0.27249557,0.26275919 0 0 0 0,0.1751722 0.27249557,0.26275919 0 0 1 0.01514,-0.1897699 z m -0.211941,0.6422999 c -0.121109,0 -0.257357,-0.1021838 -0.302773,-0.087586 a 0.43902064,0.42333426 0 0 1 0.317911,0.087586 z m -0.923457,-0.45253 c 0.121108,0 0,0 0,0 z m -1.998301,7.7513963 v 0 c 0,0 0.01514,0 0,0 z M 10.234905,15.97389 c 0.09083,-0.102184 0,0 0,0 z m 0.22708,3.737019 v 0 c 0,0 -0.12111,0 -0.166525,0 -0.04542,0 0,-0.116781 0,-0.116781 0,0 0.257356,0.08759 0.181663,0.131379 z m 2.437321,0.437933 v 0 c -0.181663,0.204368 0,-0.204369 0,-0.248162 0,-0.04379 0.136248,0.145978 0,0.233564 -0.136248,0.08759 0.01514,0.0146 0.01514,0.0146 z m 0.817487,10.962897 z m 0,-0.233564 z m 0,0.131379 a 0.34818878,0.33574786 0 0 1 0,0.07299 0.18166372,0.17517279 0 0 1 -0.04541,-0.08759 z"
     id="path308"
     inkscape:connector-curvature="0"
     style="fill:#f9f0dd;stroke-width:1.48657274" />
  <path
     class="cls-3"
     d="m 21.755412,10.207782 a 1.3624778,1.313796 0 0 1 0,0.175173 c 0,0 0.09083,-0.08759 0.121109,-0.08759 0.03028,0 -0.181663,0.116782 -0.166525,0.160575 0.01514,0.04379 0.12111,0 0.12111,0 0,0 0,0.102184 0,0.145977 0,0.04379 0.151386,-0.102184 0.151386,-0.102184 0,0 -0.151386,0.26276 0.181664,0.145978 0,0 -0.09083,0.131379 0,0.145977 0,0.233564 -0.317912,0 -0.33305,0.160575 v 0 c 0,0 -0.07569,0 0,0.102184 0.07569,0.102185 0,0 0.09083,0 0.09083,0 -0.196802,0.145978 -0.181664,0.175173 0.01514,0.02919 0.272496,0 0.34819,0 0.07569,0 -0.499576,0.160575 -0.469299,0.248161 0.03028,0.08759 1.135399,-0.08759 1.12026,-0.204368 -0.01514,-0.116781 -0.105971,0 -0.121109,0 -0.01514,0 0.33305,-0.350345 0,-0.262759 0.09083,-0.08759 -0.181664,-0.467128 -0.242219,-0.510921 -0.06056,-0.04379 -0.151386,-0.102183 0,-0.18977 0.151387,-0.08759 -0.151386,-0.07299 -0.227079,-0.175173 -0.07569,-0.102184 0.317911,-0.2335635 0.257357,-0.2773566 -0.06056,-0.043792 -0.151386,0 -0.166525,0 -0.01514,0 0,0 0,0.072984 a 3.2093923,3.0947194 0 0 1 -0.333051,0.1605756 c 0,0 0,0 0,0.07298 0,0.07298 -0.09083,0 -0.166525,0 a 0.69637756,0.67149571 0 0 1 0,0.204369 c 0,0 -0.01513,-0.145978 0.01514,-0.160576 z"
     id="path310"
     inkscape:connector-curvature="0"
     style="fill:#f9f0dd;stroke-width:1.48657274" />
  <path
     class="cls-3"
     d="m 21.619164,11.010657 c 0,0 0,-0.218966 0,-0.248161 0.393605,-0.277357 -0.33305,-0.335748 -0.363327,-0.145977 -0.03028,0.18977 0,0 0,0 0,0 -0.348188,0.24816 -0.181663,0.233563 -0.469298,0.350346 0.393604,0.423334 0.54499,0.160575 z"
     id="path312"
     inkscape:connector-curvature="0"
     style="fill:#f9f0dd;stroke-width:1.48657274" />
  <path
     class="cls-3"
     d="M 26.675471,7.7261673 A 0.46929792,0.45252972 0 0 1 26.79658,7.79916 c -0.196802,0 -0.196802,0 -0.33305,0.087586 0,-0.2919545 -0.196803,0 -0.242218,0.1021847 -0.04541,0.1021838 -0.136248,-0.087587 -0.136248,0 v 0 c 0,0 0,-0.087587 -0.09083,0 -0.09083,0.087586 0,0 0,-0.087587 0,-0.087586 -0.12111,0 -0.151387,0 -0.03028,0 -0.348189,0.2335639 -0.287634,0.1897708 0.06056,-0.043792 0.257356,-0.087586 0.302773,-0.087586 0,0.2627592 -0.56013,0.4671277 -0.605546,0.5693115 -0.04541,0.1021838 -0.408744,0.1751731 -0.439021,0.2335638 -0.03028,0.058393 0,0 0,0.1313792 0,0.13138 -0.272495,0.072993 -0.408743,0.072993 -0.136248,0 0.10597,0.5839091 0.10597,0.5985068 -0.242218,0.2773569 0.575269,0.2481615 0.6661,0 0,0.087586 0.378467,0.5985062 0.257358,0.5985062 -0.12111,0 -0.12111,0.175173 -0.12111,0.248162 h -0.09083 c 0,0.116781 0.393604,0 0.181663,0 0.12111,-0.08759 0.257357,0 0.393605,-0.145978 0.136247,-0.145977 0.544991,-0.233563 0.348189,-0.233563 -0.196803,0 0,0 0,0 0,-0.2189657 0.454159,-0.5255179 0.33305,-0.5985072 C 26.35756,9.4049098 26.13048,9.2881326 26.297005,9.1275572 a 4.2842359,4.1311584 0 0 0 0.514714,-0.3503454 c 0,-0.13138 0,-0.2335638 0.257357,-0.2627592 0,0 0.363327,0.1021838 0.287634,0.1459769 -0.33305,0 -0.832625,0.8320707 -0.363328,0.817473 0.469298,-0.0146 0.772072,0 1.105122,0.1021847 -0.211942,0 -1.150537,0 -1.180814,0.2773568 0,0 0,0.1021839 0,0.1021839 0,0 0.166525,0 0.196802,-0.1459769 0.03028,-0.1459777 0.121109,0.1021838 0.166525,0 -0.10597,0.452529 -0.499575,-0.1459777 -0.484437,0.525518 0,0.32115 -1.059705,0 -1.074843,0.262759 0,-0.277357 -0.363328,0 -0.484437,0 0.10597,0 0,0 0,-0.102184 -0.378466,0 0,-0.6131046 0,-0.6131046 -0.499575,0 -0.287634,0.5693116 -0.302772,0.5693116 v 0.116781 c 0,-0.102183 -0.741794,0.306554 -0.832626,0.423335 a 3.9966016,3.8538014 0 0 1 -0.620684,0.379541 c -0.166525,0.131379 -0.166525,0 -0.317912,0 v 0 c -0.07569,0 0.181664,0.218966 0,0.218966 -0.181663,0 -0.393605,-0.07298 -0.423882,0 -0.03028,0.07298 0.439021,0.291954 0.499575,0.437932 0.06056,0.145977 0,0.583909 -0.10597,0.569311 h -0.56013 c -0.423882,0 -0.529853,-0.116782 -0.635823,0.26276 -0.10597,0.37954 -0.121109,0.481725 -0.151386,0.700691 a 0.3179115,0.30655239 0 0 1 0,0.379541 c 0.393604,-0.175173 0.423881,0.248161 0.726654,0.116781 0.302773,-0.131379 0.847764,0 0.938597,-0.437931 0,0 -0.07569,-0.07299 -0.09083,-0.116782 -0.01514,-0.04379 0.242219,-0.175173 0.211941,-0.306553 a 2.8157875,2.7151783 0 0 1 0.378466,-0.189771 c 0,0 0,-0.24816 0.151387,-0.321149 0.151386,-0.07298 0.287634,0 0.378466,0 0.348189,0 0.6661,-0.45253 0.650962,0.07299 0,0.102184 0.136248,0 0.10597,0 -0.03028,0 0.923457,0.656898 0.908319,0.832071 -0.01514,0.175172 -0.56013,0 -0.605546,0.116781 -0.04541,0.116782 0.166525,0.233564 0.242218,0.233564 0.33305,0 0,0 0.257357,-0.189771 0,0.116783 0.257357,-0.131379 0.272496,-0.160574 0.01514,-0.02919 -0.136248,-0.160576 -0.09083,-0.233564 0.04541,-0.07299 0.10597,0 0.272495,0 0.166525,0 -0.423882,-0.437932 -0.378466,-0.379542 0.04541,0.05839 -0.529852,-0.569311 -0.575268,-0.70069 -0.04541,-0.13138 0.302773,0.08759 0.363327,0 0.06056,-0.08759 0.181664,0.379541 0.469298,0.394138 0.287634,0.0146 0.499576,0.496323 0.408744,0.613105 -0.09083,0.116782 0,0 0,0 0,0 0.787209,0.481725 0.802347,0.467127 0.01514,-0.0146 0,-0.102183 0,-0.131379 0,-0.02919 0.12111,0.102184 0.151387,0 0.03028,-0.102184 -0.469298,-0.496323 -0.378466,-0.496323 0.09083,0 0.681239,-0.175173 0.681239,0 0,0.175173 -0.257357,0.262759 0,0.175173 a 0.62068435,0.59850705 0 0 1 -0.166525,0.277357 c 0,0 0,0 0.07569,0 0.07569,0 0,0.08759 0.166525,0.08759 0.166524,0 0,0 -0.09083,0 -0.09083,0 0.105971,0.131379 0.136248,0.145977 0.03028,0.0146 -0.105971,0.13138 -0.121109,0.160576 a 0.45415928,0.43793199 0 0 1 0.196803,-0.116782 H 28.12878 c 0,0 0,0 0.105971,0 0.10597,0 -0.121109,0.131379 0,0.160575 0.121108,0.02919 0.10597,-0.145977 0.151386,-0.175173 0.04541,-0.02919 0,0 0.09083,0 0,0.218966 0.363327,0 0.499575,0 0.136248,0 0.681239,0.102184 0.681239,0 v 0 a 5.5558819,5.3573679 0 0 1 0,0.569312 c -0.181664,0.32115 -0.09083,0.408736 -0.439021,0.540116 h -0.499575 a 1.4230324,1.3721869 0 0 1 -0.726655,-0.08759 5.4801887,5.2843793 0 0 0 -0.938595,0.07299 c -0.423883,0 -0.33305,0.656897 -0.68124,0.423333 -0.348188,-0.233563 -0.878041,-0.613104 -1.301923,-0.627702 -0.423881,-0.0146 0.166526,-0.569311 0.07569,-0.686094 -0.09083,-0.116781 -0.938596,0 -1.044567,0.08759 a 1.271646,1.2262096 0 0 0 -1.135398,0.175173 c 0,0.07299 -0.423882,0.07299 -0.544991,0 -0.484436,-0.116782 -0.136248,0.116782 -0.605546,0.291954 -0.469297,0.175173 -0.302772,0.510921 -0.514714,0.802876 -0.211941,0.291954 -0.529852,0.233563 -0.635823,0.467127 -0.10597,0.233564 -0.908318,1.270003 -0.756932,1.313796 a 0.75693213,0.72988665 0 0 1 0.09083,0.729887 c -0.09083,0.145977 -0.257357,0.452529 -0.151386,0.583909 0.10597,0.131379 0,0.467128 0,0.408736 l 0.499575,0.467128 c 0.121109,0.175173 0.151386,0.656899 0.484436,0.715289 0.33305,0.05839 0.378467,0.467128 0.575269,0.481726 0.196802,0.0146 0.454159,-0.175173 0.726655,-0.175173 0.272496,0 0.605546,0 0.968873,-0.131381 a 1.4078938,1.3575892 0 0 1 0.529852,0 c 0.105971,0 0.33305,0.569313 0.439021,0.437933 0.105971,-0.131379 0.514714,0.08759 0.544991,0.07298 a 2.0285781,1.9560962 0 0 1 0,0.744485 c -0.07569,0.423334 0.10597,0.554713 0.393605,0.992646 0.287634,0.437931 0.544991,1.372186 0.151386,1.722532 -0.393605,0.350346 -0.105971,0.656898 -0.21194,0.890462 -0.105971,0.233563 0.575268,0.992645 0.454159,1.09483 a 2.1799646,2.1020735 0 0 0 0.136248,0.96345 1.3927551,1.3429914 0 0 1 0.348188,1.065634 c 0,0 0.181664,0.306553 0.105971,0.306553 -0.07569,0 0.211941,0.13138 0.302773,0.102184 a 1.0899823,1.0510368 0 0 1 0.469298,-0.13138 1.0899823,1.0510368 0 0 0 1.10512,-0.306552 3.1488377,3.0363284 0 0 0 0.741794,-0.817473 c 0,-0.160575 0,-0.569311 0.22708,-0.613105 0.590407,-0.145977 0.363327,-0.656898 0.287634,-1.094829 0.10597,0 1.347339,-0.963451 1.180814,-1.065635 -0.166526,-0.102185 0,-0.467128 0,-0.613105 0,-0.145977 -0.151386,-0.291955 -0.121109,-0.408736 a 1.8014985,1.7371302 0 0 0 0,-0.540117 c -0.257357,-0.350345 0.454159,-1.036439 0.696377,-1.2846 0.575268,-0.598507 1.513865,-1.342992 1.650112,-2.102074 0.09083,-0.408736 -0.272495,-0.277357 -0.560129,-0.218966 a 5.6618524,5.4595521 0 0 0 -0.590407,0.13138 c -0.211942,0.102184 -0.287635,-0.175173 -0.484438,-0.189771 0.439021,0 -0.650961,-0.934254 -0.635822,-1.065634 0.01513,-0.13138 -0.33305,-0.335748 -0.33305,-0.510921 a 1.1808141,1.1386231 0 0 0 0,-0.452529 c -0.105971,-0.248162 -0.272496,-0.321151 -0.242219,-0.525519 0.03028,-0.204368 -0.696377,-0.861266 -0.635823,-1.211612 0,0.08759 0.181664,0.437932 0.317912,0.437932 0.136248,0 0.09083,-0.233563 0.09083,-0.291954 a 2.2253805,2.1458667 0 0 1 0,0.233564 c 0.07569,0.145977 0.393604,0.525518 0.514713,0.70069 0.12111,0.175173 0.287635,0.58391 0.45416,0.846669 a 4.2842359,4.1311584 0 0 0 0.514714,0.729887 c 0.211941,0.18977 0,0.729886 0.257357,0.875863 0.257356,0.145978 1.22623,-0.423333 1.513864,-0.51092 0.287635,-0.08759 0.196802,-0.306553 0.529852,-0.291955 0.09083,0 0.287635,-0.335748 0.363328,-0.364943 0.287634,-0.08759 0,-0.262759 0.211941,-0.364943 0.21194,-0.102185 0.348188,-0.175173 0.348188,-0.364944 0,0 -0.787209,-0.656897 -0.756932,-0.77368 0.03028,-0.116781 -0.696377,0.642301 -0.741793,0.364944 a 2.0285781,1.9560962 0 0 1 0,-0.233564 0.3179115,0.30655239 0 0 1 0,-0.116782 0.28763421,0.27735692 0 0 1 -0.09083,0.102185 6.8123892,6.5689797 0 0 0 -0.378466,-0.554714 c -0.151386,-0.437933 -0.07569,-0.189771 0.151386,-0.467128 0.166525,0.233564 0.68124,1.051037 1.074844,0.729887 0,0 0,0.08759 0,0.08759 0,0 0.136248,-0.08759 0.09083,-0.131379 a 0.16652507,0.16057506 0 0 1 -0.257357,0.116781 c 0.07569,0.26276 0.136248,0.145978 0.333051,0.218967 h 0.166525 A 13.94269,13.444512 0 0 0 26.826857,7.6385804 c -0.07569,0 -0.151386,0.072993 -0.151386,0.087587 z"
     id="path314"
     inkscape:connector-curvature="0"
     style="fill:#f9f0dd;stroke-width:1.48657274" />
  <path
     class="cls-3"
     d="m 32.185937,24.236203 c 0,0 0,-0.598507 -0.151386,-0.598507 -0.151387,0 0,0.160575 -0.09083,0.18977 -0.09083,0.02919 0,0 -0.121108,0 -0.121109,0 0,0.08759 0,0.102184 0,0.0146 -0.121109,0.175173 0,0.189771 0.121108,0.0146 0,0 0,0 0,0 -0.272496,0.131379 -0.242219,0.175172 a 1.2867846,1.2408073 0 0 1 -0.378465,0 c -0.12111,0.175173 0,0.642301 0,0.84667 0,0.204367 -0.317912,0.70069 0,0.934254 0.469298,0.583909 1.22623,-1.795521 1.089982,-1.810119 -0.136248,-0.0146 0,0.08759 0,0.08759 0,0 0.09083,-0.145978 0,-0.204369 z"
     id="path316"
     inkscape:connector-curvature="0"
     style="fill:#f9f0dd;stroke-width:1.48657274" />
  <path
     class="cls-4"
     d="m 33.094256,23.593903 v -9.955654 a 3.5424425,3.4158696 0 1 0 -7.084885,0 V 23.6085 a 5.5861592,5.3865634 0 1 0 7.084885,0 z"
     id="path318"
     inkscape:connector-curvature="0"
     style="fill:#1a4968;stroke-width:1.48657274" />
  <path
     class="cls-5"
     d="m 32.579542,24.002639 -0.22708,-0.175173 v -9.240365 a 0.3179115,0.30655239 0 0 0 -0.317911,-0.306552 h -4.980614 a 0.3179115,0.30655239 0 0 0 -0.317911,0.306552 v 9.240365 l -0.22708,0.175173 a 4.7838111,4.6128836 0 1 0 6.055457,0 z"
     id="path320"
     inkscape:connector-curvature="0"
     style="fill:#c8533a;stroke-width:1.48657274" />
  <circle
     class="cls-1"
     cx="54"
     cy="23.300013"
     r="13.19"
     id="circle322"
     style="fill:#ffffff" />
  <circle
     class="cls-1"
     cx="92.970001"
     cy="23.970013"
     r="13.19"
     id="circle324"
     style="fill:#ffffff" />
  <path
     class="cls-6"
     d="m 61.46,16.680007 a 6.14,6.14 0 0 0 0,-0.68 0.66,0.66 0 0 0 -0.82,-0.62 c -0.28,0.08 -0.54,0.13 -0.8,0.19 -0.25,-0.78 -0.8,-1.39 -1.76,-0.94 a 3.76,3.76 0 0 0 -1.9,2.56 0.93,0.93 0 0 0 -1.12,0.78 5.36,5.36 0 0 0 -0.06,2.52 2.61,2.61 0 0 0 0.27,1.77 c 0.37,0.61 1.22,0.68 1.81,0.95 2.54,1.14 6.69,-0.43 5.32,-3.53 a 2,2 0 0 0 -0.94,-3 z"
     id="path326"
     inkscape:connector-curvature="0"
     style="fill:#a6a8ac" />
  <path
     class="cls-7"
     d="m 56.31,19.400007 c 1.28,-1.28 1.75,-3.29 0.23,-4.72 a 4.54,4.54 0 0 0 -5,-0.57 c 0,-0.479999 -2.56,-1.339999 -3.31,-0.999999 -1.43,0.62 -3,2.149999 -2.87,3.749999 -1.15,0 -2.53,1.9 -2.9,2.78 -0.73,1.73 0.87,3.92 2.65,4.55 -1.42,2.47 3.63,6.84 8.11,1.67 2.24,0.05 4.5,-0.81 4.46,-3.49 a 3.85,3.85 0 0 0 -1.37,-2.97 z"
     id="path328"
     inkscape:connector-curvature="0"
     style="fill:#6e6e71" />
  <g
     id="high"
     transform="translate(0,4.0600097)">
    <polygon
       class="cls-8"
       points="55.11,15.15 59.17,17.42 59.17,29.5 55.11,29.5 "
       id="polygon330"
       style="fill:#343f4c" />
    <polygon
       class="cls-8"
       points="58.64,11.98 55.64,13.28 55.64,20.18 58.64,20.18 "
       id="polygon332"
       style="fill:#343f4c" />
    <rect
       class="cls-9"
       x="55.290001"
       y="26.040001"
       width="3.7"
       height="0.54000002"
       id="rect334"
       style="fill:#8ec1cd" />
    <rect
       class="cls-9"
       x="55.290001"
       y="25.24"
       width="3.7"
       height="0.54000002"
       id="rect336"
       style="fill:#8ec1cd" />
    <rect
       class="cls-9"
       x="55.290001"
       y="27.73"
       width="3.7"
       height="0.54000002"
       id="rect338"
       style="fill:#8ec1cd" />
    <rect
       class="cls-9"
       x="55.290001"
       y="26.93"
       width="3.7"
       height="0.54000002"
       id="rect340"
       style="fill:#8ec1cd" />
    <rect
       class="cls-9"
       x="55.290001"
       y="24.440001"
       width="3.7"
       height="0.54000002"
       id="rect342"
       style="fill:#8ec1cd" />
    <rect
       class="cls-9"
       x="55.290001"
       y="23.639999"
       width="3.7"
       height="0.54000002"
       id="rect344"
       style="fill:#8ec1cd" />
    <rect
       class="cls-9"
       x="55.290001"
       y="22.84"
       width="3.7"
       height="0.54000002"
       id="rect346"
       style="fill:#8ec1cd" />
    <rect
       class="cls-9"
       x="55.290001"
       y="22.040001"
       width="3.7"
       height="0.54000002"
       id="rect348"
       style="fill:#8ec1cd" />
    <rect
       class="cls-9"
       x="55.290001"
       y="21.24"
       width="3.7"
       height="0.54000002"
       id="rect350"
       style="fill:#8ec1cd" />
    <rect
       class="cls-9"
       x="55.290001"
       y="20.440001"
       width="3.7"
       height="0.54000002"
       id="rect352"
       style="fill:#8ec1cd" />
    <rect
       class="cls-9"
       x="55.290001"
       y="19.639999"
       width="3.7"
       height="0.54000002"
       id="rect354"
       style="fill:#8ec1cd" />
    <rect
       class="cls-9"
       x="55.290001"
       y="18.84"
       width="3.7"
       height="0.54000002"
       id="rect356"
       style="fill:#8ec1cd" />
    <rect
       class="cls-9"
       x="55.290001"
       y="18.040001"
       width="3.7"
       height="0.54000002"
       id="rect358"
       style="fill:#8ec1cd" />
    <rect
       class="cls-9"
       x="55.290001"
       y="17.24"
       width="2.99"
       height="0.54000002"
       id="rect360"
       style="fill:#8ec1cd" />
    <rect
       class="cls-9"
       x="55.290001"
       y="16.440001"
       width="2.99"
       height="0.54000002"
       id="rect362"
       style="fill:#8ec1cd" />
    <rect
       class="cls-9"
       x="55.990002"
       y="13.26"
       width="0.47"
       height="0.47"
       id="rect364"
       style="fill:#8ec1cd" />
    <rect
       class="cls-9"
       x="56.599998"
       y="13.26"
       width="0.47"
       height="0.47"
       id="rect366"
       style="fill:#8ec1cd" />
    <rect
       class="cls-9"
       x="57.209999"
       y="13.26"
       width="0.47"
       height="0.47"
       id="rect368"
       style="fill:#8ec1cd" />
    <rect
       class="cls-9"
       x="57.82"
       y="13.26"
       width="0.47"
       height="0.47"
       id="rect370"
       style="fill:#8ec1cd" />
    <rect
       class="cls-9"
       x="55.990002"
       y="14"
       width="0.47"
       height="0.47"
       id="rect372"
       style="fill:#8ec1cd" />
    <rect
       class="cls-9"
       x="56.599998"
       y="14"
       width="0.47"
       height="0.47"
       id="rect374"
       style="fill:#8ec1cd" />
    <rect
       class="cls-9"
       x="57.209999"
       y="14"
       width="0.47"
       height="0.47"
       id="rect376"
       style="fill:#8ec1cd" />
    <rect
       class="cls-9"
       x="57.82"
       y="14"
       width="0.47"
       height="0.47"
       id="rect378"
       style="fill:#8ec1cd" />
    <rect
       class="cls-9"
       x="55.990002"
       y="14.74"
       width="0.47"
       height="0.47"
       id="rect380"
       style="fill:#8ec1cd" />
    <rect
       class="cls-9"
       x="56.599998"
       y="14.74"
       width="0.47"
       height="0.47"
       id="rect382"
       style="fill:#8ec1cd" />
    <rect
       class="cls-9"
       x="57.209999"
       y="14.74"
       width="0.47"
       height="0.47"
       id="rect384"
       style="fill:#8ec1cd" />
    <rect
       class="cls-9"
       x="57.82"
       y="14.74"
       width="0.47"
       height="0.47"
       id="rect386"
       style="fill:#8ec1cd" />
    <rect
       class="cls-9"
       x="55.990002"
       y="15.48"
       width="0.47"
       height="0.47"
       id="rect388"
       style="fill:#8ec1cd" />
    <rect
       class="cls-9"
       x="56.599998"
       y="15.48"
       width="0.47"
       height="0.47"
       id="rect390"
       style="fill:#8ec1cd" />
    <rect
       class="cls-9"
       x="57.209999"
       y="15.48"
       width="0.47"
       height="0.47"
       id="rect392"
       style="fill:#8ec1cd" />
    <rect
       class="cls-9"
       x="57.82"
       y="15.48"
       width="0.47"
       height="0.47"
       id="rect394"
       style="fill:#8ec1cd" />
    <rect
       class="cls-10"
       x="55.110001"
       y="28.67"
       width="4.0700002"
       height="0.82999998"
       id="rect396"
       style="fill:#e9be65" />
    <rect
       class="cls-11"
       x="49.450001"
       y="18.93"
       width="4.9000001"
       height="5.6700001"
       id="rect398"
       style="fill:#1a8baf" />
    <rect
       class="cls-11"
       x="49.98"
       y="15.32"
       width="3.8399999"
       height="3.9000001"
       id="rect400"
       style="fill:#1a8baf" />
    <rect
       class="cls-11"
       x="50.369999"
       y="12.82"
       width="3.0699999"
       height="6.5300002"
       id="rect402"
       style="fill:#1a8baf" />
    <rect
       class="cls-9"
       x="50.369999"
       y="18.24"
       width="0.75999999"
       height="0.88"
       id="rect404"
       style="fill:#8ec1cd" />
    <rect
       class="cls-9"
       x="51.52"
       y="18.24"
       width="0.75999999"
       height="0.88"
       id="rect406"
       style="fill:#8ec1cd" />
    <rect
       class="cls-9"
       x="52.68"
       y="18.24"
       width="0.75999999"
       height="0.88"
       id="rect408"
       style="fill:#8ec1cd" />
    <rect
       class="cls-9"
       x="50.369999"
       y="16.98"
       width="0.75999999"
       height="0.88"
       id="rect410"
       style="fill:#8ec1cd" />
    <rect
       class="cls-9"
       x="51.52"
       y="16.98"
       width="0.75999999"
       height="0.88"
       id="rect412"
       style="fill:#8ec1cd" />
    <rect
       class="cls-9"
       x="52.68"
       y="16.98"
       width="0.75999999"
       height="0.88"
       id="rect414"
       style="fill:#8ec1cd" />
    <rect
       class="cls-9"
       x="50.369999"
       y="15.72"
       width="0.75999999"
       height="0.88"
       id="rect416"
       style="fill:#8ec1cd" />
    <rect
       class="cls-9"
       x="51.52"
       y="15.72"
       width="0.75999999"
       height="0.88"
       id="rect418"
       style="fill:#8ec1cd" />
    <rect
       class="cls-9"
       x="52.68"
       y="15.72"
       width="0.75999999"
       height="0.88"
       id="rect420"
       style="fill:#8ec1cd" />
    <rect
       class="cls-9"
       x="50.939999"
       y="13.2"
       width="0.75999999"
       height="0.88"
       id="rect422"
       style="fill:#8ec1cd" />
    <rect
       class="cls-9"
       x="52.099998"
       y="13.2"
       width="0.75999999"
       height="0.88"
       id="rect424"
       style="fill:#8ec1cd" />
    <rect
       class="cls-9"
       x="50.939999"
       y="14.46"
       width="0.75999999"
       height="0.88"
       id="rect426"
       style="fill:#8ec1cd" />
    <rect
       class="cls-9"
       x="52.099998"
       y="14.46"
       width="0.75999999"
       height="0.88"
       id="rect428"
       style="fill:#8ec1cd" />
    <rect
       class="cls-9"
       x="49.790001"
       y="19.51"
       width="0.75999999"
       height="0.88"
       id="rect430"
       style="fill:#8ec1cd" />
    <rect
       class="cls-9"
       x="50.939999"
       y="19.51"
       width="0.75999999"
       height="0.88"
       id="rect432"
       style="fill:#8ec1cd" />
    <rect
       class="cls-9"
       x="52.099998"
       y="19.51"
       width="0.75999999"
       height="0.88"
       id="rect434"
       style="fill:#8ec1cd" />
    <rect
       class="cls-9"
       x="53.25"
       y="19.51"
       width="0.75999999"
       height="0.88"
       id="rect436"
       style="fill:#8ec1cd" />
    <rect
       class="cls-9"
       x="49.790001"
       y="20.77"
       width="0.75999999"
       height="0.88"
       id="rect438"
       style="fill:#8ec1cd" />
    <rect
       class="cls-9"
       x="50.939999"
       y="20.77"
       width="0.75999999"
       height="0.88"
       id="rect440"
       style="fill:#8ec1cd" />
    <rect
       class="cls-9"
       x="52.099998"
       y="20.77"
       width="0.75999999"
       height="0.88"
       id="rect442"
       style="fill:#8ec1cd" />
    <rect
       class="cls-9"
       x="53.25"
       y="20.77"
       width="0.75999999"
       height="0.88"
       id="rect444"
       style="fill:#8ec1cd" />
    <rect
       class="cls-9"
       x="49.790001"
       y="22.030001"
       width="0.75999999"
       height="0.88"
       id="rect446"
       style="fill:#8ec1cd" />
    <rect
       class="cls-9"
       x="50.939999"
       y="22.030001"
       width="0.75999999"
       height="0.88"
       id="rect448"
       style="fill:#8ec1cd" />
    <rect
       class="cls-9"
       x="52.099998"
       y="22.030001"
       width="0.75999999"
       height="0.88"
       id="rect450"
       style="fill:#8ec1cd" />
    <rect
       class="cls-9"
       x="53.25"
       y="22.030001"
       width="0.75999999"
       height="0.88"
       id="rect452"
       style="fill:#8ec1cd" />
    <rect
       class="cls-9"
       x="49.790001"
       y="23.290001"
       width="0.75999999"
       height="0.88"
       id="rect454"
       style="fill:#8ec1cd" />
    <rect
       class="cls-9"
       x="50.939999"
       y="23.290001"
       width="0.75999999"
       height="0.88"
       id="rect456"
       style="fill:#8ec1cd" />
    <rect
       class="cls-9"
       x="52.099998"
       y="23.290001"
       width="0.75999999"
       height="0.88"
       id="rect458"
       style="fill:#8ec1cd" />
    <rect
       class="cls-9"
       x="53.25"
       y="23.290001"
       width="0.75999999"
       height="0.88"
       id="rect460"
       style="fill:#8ec1cd" />
    <rect
       class="cls-8"
       x="49.450001"
       y="24.6"
       width="4.9000001"
       height="0.82999998"
       id="rect462"
       style="fill:#343f4c" />
    <rect
       class="cls-8"
       x="47.849998"
       y="19.540001"
       width="4.3000002"
       height="9.0200005"
       id="rect464"
       style="fill:#343f4c" />
    <rect
       class="cls-9"
       x="48.32"
       y="19.98"
       width="0.82999998"
       height="0.95999998"
       id="rect466"
       style="fill:#8ec1cd" />
    <rect
       class="cls-9"
       x="49.580002"
       y="19.98"
       width="0.82999998"
       height="0.95999998"
       id="rect468"
       style="fill:#8ec1cd" />
    <rect
       class="cls-9"
       x="50.849998"
       y="19.98"
       width="0.82999998"
       height="0.95999998"
       id="rect470"
       style="fill:#8ec1cd" />
    <rect
       class="cls-9"
       x="48.32"
       y="21.42"
       width="0.82999998"
       height="0.95999998"
       id="rect472"
       style="fill:#8ec1cd" />
    <rect
       class="cls-9"
       x="49.580002"
       y="21.42"
       width="0.82999998"
       height="0.95999998"
       id="rect474"
       style="fill:#8ec1cd" />
    <rect
       class="cls-9"
       x="50.849998"
       y="21.42"
       width="0.82999998"
       height="0.95999998"
       id="rect476"
       style="fill:#8ec1cd" />
    <rect
       class="cls-9"
       x="48.32"
       y="22.85"
       width="0.82999998"
       height="0.95999998"
       id="rect478"
       style="fill:#8ec1cd" />
    <rect
       class="cls-9"
       x="49.580002"
       y="22.85"
       width="0.82999998"
       height="0.95999998"
       id="rect480"
       style="fill:#8ec1cd" />
    <rect
       class="cls-9"
       x="50.849998"
       y="22.85"
       width="0.82999998"
       height="0.95999998"
       id="rect482"
       style="fill:#8ec1cd" />
    <rect
       class="cls-9"
       x="48.32"
       y="24.290001"
       width="0.82999998"
       height="0.95999998"
       id="rect484"
       style="fill:#8ec1cd" />
    <rect
       class="cls-9"
       x="49.580002"
       y="24.290001"
       width="0.82999998"
       height="0.95999998"
       id="rect486"
       style="fill:#8ec1cd" />
    <rect
       class="cls-9"
       x="50.849998"
       y="24.290001"
       width="0.82999998"
       height="0.95999998"
       id="rect488"
       style="fill:#8ec1cd" />
    <rect
       class="cls-9"
       x="48.32"
       y="25.719999"
       width="0.82999998"
       height="0.95999998"
       id="rect490"
       style="fill:#8ec1cd" />
    <rect
       class="cls-9"
       x="49.580002"
       y="25.719999"
       width="0.82999998"
       height="0.95999998"
       id="rect492"
       style="fill:#8ec1cd" />
    <rect
       class="cls-9"
       x="50.849998"
       y="25.719999"
       width="0.82999998"
       height="0.95999998"
       id="rect494"
       style="fill:#8ec1cd" />
    <rect
       class="cls-9"
       x="48.32"
       y="27.16"
       width="0.82999998"
       height="0.95999998"
       id="rect496"
       style="fill:#8ec1cd" />
    <rect
       class="cls-9"
       x="49.580002"
       y="27.16"
       width="0.82999998"
       height="0.95999998"
       id="rect498"
       style="fill:#8ec1cd" />
    <rect
       class="cls-9"
       x="50.849998"
       y="27.16"
       width="0.82999998"
       height="0.95999998"
       id="rect500"
       style="fill:#8ec1cd" />
    <rect
       class="cls-12"
       x="47.849998"
       y="28.559999"
       width="4.3000002"
       height="0.91000003"
       id="rect502"
       style="fill:#302e30" />
    <rect
       class="cls-13"
       x="51.900002"
       y="21.52"
       width="4.9000001"
       height="7.1500001"
       id="rect504"
       style="fill:#e3ae37" />
    <rect
       class="cls-11"
       x="52.240002"
       y="22.120001"
       width="0.75999999"
       height="0.88"
       id="rect506"
       style="fill:#1a8baf" />
    <rect
       class="cls-11"
       x="53.389999"
       y="22.120001"
       width="0.75999999"
       height="0.88"
       id="rect508"
       style="fill:#1a8baf" />
    <rect
       class="cls-11"
       x="54.529999"
       y="22.120001"
       width="0.75999999"
       height="0.88"
       id="rect510"
       style="fill:#1a8baf" />
    <rect
       class="cls-11"
       x="52.240002"
       y="23.43"
       width="0.75999999"
       height="0.88"
       id="rect512"
       style="fill:#1a8baf" />
    <rect
       class="cls-11"
       x="53.389999"
       y="23.43"
       width="0.75999999"
       height="0.88"
       id="rect514"
       style="fill:#1a8baf" />
    <rect
       class="cls-11"
       x="54.549999"
       y="23.43"
       width="0.75999999"
       height="0.88"
       id="rect516"
       style="fill:#1a8baf" />
    <rect
       class="cls-11"
       x="52.240002"
       y="24.74"
       width="0.75999999"
       height="0.88"
       id="rect518"
       style="fill:#1a8baf" />
    <rect
       class="cls-11"
       x="53.389999"
       y="24.74"
       width="0.75999999"
       height="0.88"
       id="rect520"
       style="fill:#1a8baf" />
    <rect
       class="cls-11"
       x="54.549999"
       y="24.74"
       width="0.75999999"
       height="0.88"
       id="rect522"
       style="fill:#1a8baf" />
    <rect
       class="cls-11"
       x="52.240002"
       y="26.049999"
       width="0.75999999"
       height="0.88"
       id="rect524"
       style="fill:#1a8baf" />
    <rect
       class="cls-11"
       x="53.389999"
       y="26.049999"
       width="0.75999999"
       height="0.88"
       id="rect526"
       style="fill:#1a8baf" />
    <rect
       class="cls-11"
       x="54.549999"
       y="26.049999"
       width="0.75999999"
       height="0.88"
       id="rect528"
       style="fill:#1a8baf" />
    <rect
       class="cls-11"
       x="52.240002"
       y="27.360001"
       width="0.75999999"
       height="0.88"
       id="rect530"
       style="fill:#1a8baf" />
    <rect
       class="cls-11"
       x="53.389999"
       y="27.360001"
       width="0.75999999"
       height="0.88"
       id="rect532"
       style="fill:#1a8baf" />
    <rect
       class="cls-11"
       x="54.549999"
       y="27.360001"
       width="0.75999999"
       height="0.88"
       id="rect534"
       style="fill:#1a8baf" />
    <rect
       class="cls-11"
       x="55.689999"
       y="22.120001"
       width="0.75999999"
       height="0.88"
       id="rect536"
       style="fill:#1a8baf" />
    <rect
       class="cls-11"
       x="55.700001"
       y="23.43"
       width="0.75999999"
       height="0.88"
       id="rect538"
       style="fill:#1a8baf" />
    <rect
       class="cls-11"
       x="55.700001"
       y="24.74"
       width="0.75999999"
       height="0.88"
       id="rect540"
       style="fill:#1a8baf" />
    <rect
       class="cls-11"
       x="55.700001"
       y="26.049999"
       width="0.75999999"
       height="0.88"
       id="rect542"
       style="fill:#1a8baf" />
    <rect
       class="cls-11"
       x="55.700001"
       y="27.360001"
       width="0.75999999"
       height="0.88"
       id="rect544"
       style="fill:#1a8baf" />
    <polygon
       class="cls-14"
       points="51.81,21.13 56.89,21.13 57.14,21.91 51.56,21.91 "
       id="polygon546"
       style="fill:#c23c17" />
    <rect
       class="cls-14"
       x="51.900002"
       y="28.67"
       width="4.9000001"
       height="0.82999998"
       id="rect548"
       style="fill:#c23c17" />
  </g>
  <path
     class="cls-15"
     d="m 62.8,19.880007 a 1.59,1.59 0 0 0 -1.22,-2.37 4.6,4.6 0 0 0 -4.42,2.07 c -0.44,-1.26 -2.44,-0.8 -3.49,0.07 a 6,6 0 0 0 -1.59,5.14 c -1.53,-0.3 -3.69,4 -0.67,3.88 l 0.09,0.19 a 0.14,0.14 0 0 0 0.22,0 4.48,4.48 0 0 0 5.08,0.45 1.61,1.61 0 0 0 0.61,-0.92 h 0.07 c 1.21,0.5 2.82,-0.32 3.76,-1 a 2.49,2.49 0 0 0 1.13,-1.76 c 1.63,-0.22 3.23,-1.19 3.38,-2.92 0.15,-1.73 -1.49,-3.19 -2.95,-2.83 z"
     id="path551"
     inkscape:connector-curvature="0"
     style="opacity:0.5;fill:#bcbebf" />
  <path
     class="cls-16"
     d="m 55.15,23.850007 c 0.68,-0.79 1.43,-1.66 0.82,-2.68 a 2.36,2.36 0 0 0 -2.23,-0.91 2.38,2.38 0 0 0 -0.66,-2.57 2.21,2.21 0 0 0 -2.76,0.34 c -0.94,-1.78 -4.61,0.5 -4.74,2.54 -2.7,0 -2.23,4.34 -0.2,5.58 a 2.32,2.32 0 0 0 -0.38,2.27 2.57,2.57 0 0 0 3.2,1.51 1,1 0 0 0 0.88,0.82 1.8,1.8 0 0 0 1.59,0.29 2.58,2.58 0 0 0 2,-0.27 2.21,2.21 0 0 0 1.33,-1.84 3.37,3.37 0 0 0 2.24,-2.94 2.43,2.43 0 0 0 -1.09,-2.14 z"
     id="path553"
     inkscape:connector-curvature="0"
     style="opacity:0.6;fill:#808285" />
  <polygon
     class="cls-17"
     points="93.99,15.71 93.64,11.03 93.52,11.03 93.44,12.32 92.42,11.1 92.41,11.11 93.42,12.72 92.98,20.21 89.82,16.05 89.78,16.09 90.82,17.93 89.3,17.88 89.3,17.9 90.98,18.21 92.9,21.63 92.6,26.8 94.81,26.78 94.04,16.38 96.06,13.64 96.04,13.62 "
     id="polygon555"
     style="fill:#48240d"
     transform="translate(0,4.0600097)" />
  <polygon
     class="cls-17"
     points="96.75,17.91 97.28,10.95 97.41,10.95 97.55,13.42 98.56,12.2 98.58,12.21 97.57,13.82 97.94,20.13 101.1,15.97 101.14,16 100.1,17.85 101.62,17.8 101.63,17.82 99.95,18.13 98.02,21.55 98.33,26.72 96.12,26.7 96.7,18.58 94.67,15.83 94.7,15.81 "
     id="polygon557"
     style="fill:#48240d"
     transform="translate(0,4.0600097)" />
  <path
     class="cls-17"
     d="m 96.55,27.430007 -1.33,-1.37 v 0 l 1.21,1.64 c 0.03,-0.05 0.07,-0.16 0.12,-0.27 z"
     id="path559"
     inkscape:connector-curvature="0"
     style="fill:#48240d" />
  <path
     class="cls-17"
     d="m 97.61,21.060007 0.62,-1.11 v 0 l -0.81,1.06 a 0.75,0.75 0 0 0 0.19,0.05 z"
     id="path561"
     inkscape:connector-curvature="0"
     style="fill:#48240d" />
  <path
     class="cls-17"
     d="m 97.69,17.560007 1.36,-0.25 v 0 h -1.29 a 0.6,0.6 0 0 0 -0.07,0.25 z"
     id="path563"
     inkscape:connector-curvature="0"
     style="fill:#48240d" />
  <polygon
     class="cls-17"
     points="89.8,17.91 89.26,10.95 89.14,10.95 89,13.42 87.98,12.2 87.97,12.21 88.97,13.82 88.6,20.13 85.44,15.97 85.4,16 86.44,17.85 84.92,17.8 84.92,17.82 86.6,18.13 88.52,21.55 88.22,26.72 90.43,26.7 89.84,18.58 91.87,15.83 91.85,15.81 "
     id="polygon565"
     style="fill:#48240d"
     transform="translate(0,4.0600097)" />
  <path
     class="cls-17"
     d="m 90,27.430007 1.32,-1.37 v 0 l -1.21,1.64 c -0.02,-0.05 -0.11,-0.16 -0.11,-0.27 z"
     id="path567"
     inkscape:connector-curvature="0"
     style="fill:#48240d" />
  <path
     class="cls-17"
     d="m 88.93,21.060007 -0.62,-1.11 v 0 l 0.81,1.06 a 0.75,0.75 0 0 1 -0.19,0.05 z"
     id="path569"
     inkscape:connector-curvature="0"
     style="fill:#48240d" />
  <path
     class="cls-17"
     d="m 88.85,17.560007 -1.36,-0.25 v 0 h 1.29 a 0.6,0.6 0 0 1 0.07,0.25 z"
     id="path571"
     inkscape:connector-curvature="0"
     style="fill:#48240d" />
  <path
     class="cls-18"
     d="m 102.66,31.620007 a 28.63,28.63 0 0 0 -9.73,-1.82 29.19,29.19 0 0 0 -10,1.82 z"
     id="path573"
     inkscape:connector-curvature="0"
     style="fill:#b2a321" />
  <path
     class="cls-19"
     d="m 102.66,31.620007 a 28.63,28.63 0 0 0 -9.73,-1.82 h -0.07 a 35.07,35.07 0 0 1 6.14,1.82 z"
     id="path575"
     inkscape:connector-curvature="0"
     style="fill:#988b26" />
  <path
     class="cls-20"
     d="m 102.79,22.520007 a 0.11,0.11 0 0 0 0.08,-0.17 c -0.27,-0.39 -0.81,-0.82 -1.28,-0.59 a 0.13,0.13 0 0 0 -0.08,0.2 c 0.26,0.59 0.74,0.59 1.28,0.56 z"
     id="path577"
     inkscape:connector-curvature="0"
     style="fill:#e7b737" />
  <path
     class="cls-20"
     d="m 87,16.350007 a 0.09,0.09 0 0 0 0,0.15 c 0.29,0.24 0.79,0.45 1.11,0.16 a 0.11,0.11 0 0 0 0,-0.17 c -0.32,-0.43 -0.69,-0.28 -1.11,-0.14 z"
     id="path579"
     inkscape:connector-curvature="0"
     style="fill:#e7b737" />
</svg>
