<?xml version="1.0" encoding="UTF-8" standalone="no"?>
<svg
   xmlns:dc="http://purl.org/dc/elements/1.1/"
   xmlns:cc="http://creativecommons.org/ns#"
   xmlns:rdf="http://www.w3.org/1999/02/22-rdf-syntax-ns#"
   xmlns:svg="http://www.w3.org/2000/svg"
   xmlns="http://www.w3.org/2000/svg"
   xmlns:sodipodi="http://sodipodi.sourceforge.net/DTD/sodipodi-0.dtd"
   xmlns:inkscape="http://www.inkscape.org/namespaces/inkscape"
   id="Capa_1"
   data-name="Capa 1"
   viewBox="0 0 64.000001 58.000002"
   version="1.1"
   sodipodi:docname="perfil.svg"
   width="64"
   height="58"
   inkscape:version="0.92.4 (5da689c313, 2019-01-14)">
  <metadata
     id="metadata4184">
    <rdf:RDF>
      <cc:Work
         rdf:about="">
        <dc:format>image/svg+xml</dc:format>
        <dc:type
           rdf:resource="http://purl.org/dc/dcmitype/StillImage" />
        <dc:title>TU PERFIL</dc:title>
      </cc:Work>
    </rdf:RDF>
  </metadata>
  <sodipodi:namedview
     pagecolor="#ffffff"
     bordercolor="#666666"
     borderopacity="1"
     objecttolerance="10"
     gridtolerance="10"
     guidetolerance="10"
     inkscape:pageopacity="0"
     inkscape:pageshadow="2"
     inkscape:window-width="1366"
     inkscape:window-height="705"
     id="namedview4182"
     showgrid="false"
     inkscape:zoom="2.5167665"
     inkscape:cx="69.334999"
     inkscape:cy="28.334999"
     inkscape:window-x="-8"
     inkscape:window-y="-8"
     inkscape:window-maximized="1"
     inkscape:current-layer="_Grupo_" />
  <defs
     id="defs4151">
    <style
       id="style4149">.cls-1{fill:#c48f2c;}.cls-2{fill:#a6cbc2;}.cls-3{fill:#ba5e43;}.cls-4{fill:#ddd8bf;}.cls-5{fill:#43382f;}.cls-6{opacity:0.7;}.cls-7{font-size:12px;fill:#211915;font-family:MyriadPro-Regular, Myriad Pro;}</style>
  </defs>
  <title
     id="title4153">TU PERFIL</title>
  <g
     id="_Grupo_"
     data-name="&lt;Grupo&gt;"
     transform="translate(0,1.3300018)">
    <g
       id="_Grupo_2"
       data-name="&lt;Grupo&gt;"
       transform="translate(-6,-2)">
      <circle
         id="_Trazado_"
         data-name="&lt;Trazado&gt;"
         class="cls-1"
         cx="35.09"
         cy="29.84"
         r="23.16"
         style="fill:#c48f2c" />
    </g>
    <g
       id="_Grupo_3"
       data-name="&lt;Grupo&gt;"
       transform="translate(-6,-2)">
      <circle
         id="_Trazado_2"
         data-name="&lt;Trazado&gt;"
         class="cls-2"
         cx="35.09"
         cy="29.84"
         r="23.16"
         style="fill:#a6cbc2" />
    </g>
    <g
       id="_Grupo_4"
       data-name="&lt;Grupo&gt;"
       transform="translate(-6,-2)">
      <g
         id="_Grupo_5"
         data-name="&lt;Grupo&gt;">
        <path
           id="_Trazado_3"
           data-name="&lt;Trazado&gt;"
           class="cls-3"
           d="M 23.53,20.85 A 1,1 0 0 1 22.91,20.56 1.83,1.83 0 0 1 22.5,19.9 c -0.06,-0.14 -0.11,-0.29 -0.15,-0.44 a 0.07,0.07 0 0 0 -0.13,0 4.12,4.12 0 0 1 -0.27,0.61 1.47,1.47 0 0 1 -0.33,0.45 v 0 a 0.92,0.92 0 0 1 -0.53,0.14 c -0.07,0 -0.09,0.12 0,0.13 a 1.46,1.46 0 0 1 1.1,1 1.32,1.32 0 0 1 0.06,0.43 c 0,0.08 0.11,0.09 0.13,0 a 1.92,1.92 0 0 1 0.82,-1.18 0.8,0.8 0 0 1 0.36,-0.08 0.07,0.07 0 0 0 -0.03,-0.11 z"
           inkscape:connector-curvature="0"
           style="fill:#ba5e43" />
      </g>
      <g
         id="_Grupo_6"
         data-name="&lt;Grupo&gt;">
        <path
           id="_Trazado_4"
           data-name="&lt;Trazado&gt;"
           class="cls-4"
           d="m 16.28,30.11 c 0,0 7.17,-10.11 17.32,-10.44 10.15,-0.33 18.4,10.44 18.4,10.44 0,0 -9.3,9.81 -17.85,9.81 -8.55,0 -17.87,-9.81 -17.87,-9.81 z"
           inkscape:connector-curvature="0"
           style="fill:#ddd8bf" />
      </g>
      <g
         id="_Grupo_7"
         data-name="&lt;Grupo&gt;">
        <circle
           id="_Trazado_5"
           data-name="&lt;Trazado&gt;"
           class="cls-5"
           cx="33.560001"
           cy="29.799999"
           r="7.9299998"
           style="fill:#43382f" />
      </g>
      <g
         id="_Grupo_8"
         data-name="&lt;Grupo&gt;">
        <circle
           id="_Trazado_6"
           data-name="&lt;Trazado&gt;"
           class="cls-4"
           cx="29.27"
           cy="31.559999"
           r="1.78"
           style="fill:#ddd8bf" />
      </g>
      <g
         id="_Grupo_9"
         data-name="&lt;Grupo&gt;">
        <path
           id="_Trazado_7"
           data-name="&lt;Trazado&gt;"
           class="cls-3"
           d="m 20.2,23.53 a 2.07,2.07 0 0 1 -1.31,-0.62 3.89,3.89 0 0 1 -0.87,-1.4 C 17.9,21.2 17.8,20.89 17.7,20.58 a 0.14,0.14 0 0 0 -0.28,0 8.73,8.73 0 0 1 -0.57,1.3 3.13,3.13 0 0 1 -0.7,0.95 v 0 a 2,2 0 0 1 -1.13,0.29 c -0.16,0 -0.2,0.25 0,0.28 a 3.1,3.1 0 0 1 2.34,2.1 2.81,2.81 0 0 1 0.13,0.92 c 0,0.17 0.23,0.18 0.28,0 a 4.08,4.08 0 0 1 1.66,-2.42 1.7,1.7 0 0 1 0.77,-0.18 0.145,0.145 0 0 0 0,-0.29 z"
           inkscape:connector-curvature="0"
           style="fill:#ba5e43" />
      </g>
    </g>
    <g
       id="_Grupo_10"
       data-name="&lt;Grupo&gt;"
       transform="translate(-6,-2)">
      <g
         id="_Grupo_11"
         data-name="&lt;Grupo&gt;"
         class="cls-6"
         style="opacity:0.7">
        <circle
           id="_Trazado_8"
           data-name="&lt;Trazado&gt;"
           class="cls-4"
           cx="47.650002"
           cy="30.110001"
           r="10.44"
           transform="rotate(-77.04,47.653891,30.113604)"
           style="fill:#ddd8bf" />
      </g>
      <g
         id="_Grupo_12"
         data-name="&lt;Grupo&gt;">
        <rect
           id="_Rectángulo_"
           data-name="&lt;Rectángulo&gt;"
           class="cls-3"
           x="55.439999"
           y="36.560001"
           width="5.3299999"
           height="13.2"
           rx="2.6700001"
           ry="2.6700001"
           transform="rotate(-39.59,58.104395,43.163626)"
           style="fill:#ba5e43" />
      </g>
      <g
         id="_Grupo_13"
         data-name="&lt;Grupo&gt;">
        <g
           id="_Grupo_14"
           data-name="&lt;Grupo&gt;">
          <path
             id="_Trazado_compuesto_"
             data-name="&lt;Trazado compuesto&gt;"
             class="cls-3"
             d="m 47.61,42.2 a 12.28,12.28 0 0 1 -2.75,-0.31 12.18,12.18 0 0 1 -9.14,-14.6 v 0 A 12.18,12.18 0 1 1 47.61,42.2 Z m 0,-22.26 a 10.1,10.1 0 1 0 2.28,0.26 10.15,10.15 0 0 0 -2.32,-0.27 z"
             inkscape:connector-curvature="0"
             style="fill:#ba5e43" />
        </g>
      </g>
    </g>
  </g>
</svg>
