<svg id="Capa_1" data-name="Capa 1" xmlns="http://www.w3.org/2000/svg" viewBox="0 0 54 54.2"><defs><style>.cls-1{fill:#e4c43a;}.cls-2{fill:#d78c2c;opacity:0.47;}</style></defs><title>IMAGEN USUARIO</title><path class="cls-1" d="M50.56,30.61a23.41,23.41,0,0,1-6.24,16h0a22.2,22.2,0,0,1-32.74,0,23.45,23.45,0,0,1-6.24-16C5.35,17.79,15.47,7.39,28,7.39S50.56,17.79,50.56,30.61Z"/><path class="cls-2" d="M44.32,46.61h0a22.2,22.2,0,0,1-32.74,0c.16-.62.32-1.18.47-1.65,0-.14.08-.26.12-.38a8,8,0,0,1,.28-.78.8.8,0,0,1,.06-.15l0-.08c.62-1.1,6.73-2.67,9.56-3.65a4.34,4.34,0,0,0,1.4-.63l0-.06a5.1,5.1,0,0,0,.43-2.1,13.13,13.13,0,0,1-2.33-4.23,8.6,8.6,0,0,1-.4-1.72,2.08,2.08,0,0,1-.45.05,2.15,2.15,0,0,1-2.11-2.18,2.18,2.18,0,0,1,1.08-1.89c-.21-1.6-1-10.36,6.59-11.68,0,0,3.21-.26,4.69,1.27a4.45,4.45,0,0,1,3.84,1.8,9.17,9.17,0,0,1,.89,8.85,2.18,2.18,0,0,1-1.16,3.83,8.66,8.66,0,0,1-.39,1.68,13.12,13.12,0,0,1-2.32,4.21,4.72,4.72,0,0,0,.48,2.18l.06.06A7.06,7.06,0,0,0,34,40c2.93,1,8.71,2.49,9.32,3.57l.09.17,0,.12c.07.18.16.43.25.71,0,.12.08.25.12.38.1.33.21.7.31,1.1Z"/></svg>